<?xml version="1.0" standalone="no"?>
<!DOCTYPE svg PUBLIC "-//W3C//DTD SVG 1.1//EN" "http://www.w3.org/Graphics/SVG/1.1/DTD/svg11.dtd" >
<!--
2013-9-30: Created.
-->
<svg>
<metadata>
Created by iconfont
</metadata>
<defs>

<font id="iconfont" horiz-adv-x="1024" >
  <font-face
    font-family="iconfont"
    font-weight="500"
    font-stretch="normal"
    units-per-em="1024"
    ascent="896"
    descent="-128"
  />
    <missing-glyph />
    
    <glyph glyph-name="x" unicode="x" horiz-adv-x="1001"
d="M281 543q-27 -1 -53 -1h-83q-18 0 -36.5 -6t-32.5 -18.5t-23 -32t-9 -45.5v-76h912v41q0 16 -0.5 30t-0.5 18q0 13 -5 29t-17 29.5t-31.5 22.5t-49.5 9h-133v-97h-438v97zM955 310v-52q0 -23 0.5 -52t0.5 -58t-10.5 -47.5t-26 -30t-33 -16t-31.5 -4.5q-14 -1 -29.5 -0.5
t-29.5 0.5h-32l-45 128h-439l-44 -128h-29h-34q-20 0 -45 1q-25 0 -41 9.5t-25.5 23t-13.5 29.5t-4 30v167h911zM163 247q-12 0 -21 -8.5t-9 -21.5t9 -21.5t21 -8.5q13 0 22 8.5t9 21.5t-9 21.5t-22 8.5zM316 123q-8 -26 -14 -48q-5 -19 -10.5 -37t-7.5 -25t-3 -15t1 -14.5
t9.5 -10.5t21.5 -4h37h67h81h80h64h36q23 0 34 12t2 38q-5 13 -9.5 30.5t-9.5 34.5q-5 19 -11 39h-368zM336 498v228q0 11 2.5 23t10 21.5t20.5 15.5t34 6h188q31 0 51.5 -14.5t20.5 -52.5v-227h-327z" />
    

    
    <glyph glyph-name="yanjing" unicode="&#58917;" d="M1005.482 300.0788c0-95.0077-203.4831-297.684-493.4554-297.684-282.5923 0-493.4554 199.3411-493.4554 297.684 0 98.3286 211.7734 297.3655 493.4554 297.3655C804.2783 597.4433 1005.5506 398.4074 1005.482 300.0788zM512.4608 543.1447c-131.33 0-237.7933-108.9014-237.7933-243.2276 0-134.3273 106.4622-243.2276 237.7933-243.2276 131.371 0 237.8373 108.9014 237.8373 243.2276C750.2971 434.2433 643.8318 543.1447 512.4608 543.1447zM512.0266 455.2005c-83.6342 0-151.4353-69.3371-151.4353-154.8769 0-85.5306 67.8011-154.88 151.4353-154.88s151.4076 69.3494 151.4076 154.88C663.4342 385.8634 595.6608 455.2005 512.0266 455.2005z"  horiz-adv-x="1024" />

    
    <glyph glyph-name="tuichu" unicode="&#58885;" d="M774.9683 645.7516c30.72-21.845 58.028-46.593 81.918-74.2359 23.893-27.65 44.3709-57.514 61.4369-89.598 17.068-32.084 30.038-66.047 38.912-101.8849 8.873-35.838 13.31-72.1879 13.31-109.0499 0-63.486-12.1149-123.0438-36.3489-178.6819-24.234-55.6339-57.001-104.1019-98.3009-145.3978-41.303-41.3041-89.77-74.068-145.4029-98.302-55.6319-24.234-115.1959-36.352-178.6747-36.352-62.804 0-122.026 12.118-177.6589 36.352C278.5208-127.1647 229.8849-94.3997 188.245-53.0967c-41.643 41.2979-74.4079 89.7659-98.3009 145.3978-23.894 55.638-35.839 115.1959-35.839 178.6839 0 36.1759 4.265 71.6749 12.8 106.4888s20.649 67.9219 36.3479 99.326c15.7041 31.3989 35.159 60.7529 58.368 88.0558 23.209 27.308 49.1479 51.884 77.822 73.728 15.019 10.923 31.2289 15.018 48.639 12.289 17.4029-2.7351 31.5689-11.265 42.4929-25.599 10.9251-14.3401 15.019-30.38 12.29-48.128-2.7361-17.749-11.265-32.084-25.599-43.009-43.008-31.3989-75.947-69.9658-98.817-115.7048-22.8628-45.738-34.2968-94.8859-34.2968-147.4468 0-45.054 8.5299-87.552 25.599-127.486 17.0639-39.934 40.4429-74.7459 70.1348-104.4398 29.7001-29.7001 64.513-53.25 104.447-70.656s82.4259-26.1079 127.486-26.1079c45.0509 0 87.5448 8.702 127.4778 26.1079s74.752 40.9559 104.4449 70.656c29.6929 29.694 53.2429 64.5059 70.6499 104.4398 17.4111 39.934 26.111 82.432 26.111 127.486 0 53.2419-12.2849 103.5889-36.8589 151.0318-24.576 47.4429-59.05 86.5208-103.4199 117.2388-15.017 10.24-24.064 24.235-27.1329 41.984-3.074 17.749 0.5089 34.133 10.7469 49.153 10.242 14.334 24.236 23.039 41.984 26.1079C743.5704 659.5704 759.9473 655.9916 774.9683 645.7516L774.9683 645.7516zM511.8177 267.9099c-17.7521 0-32.94 6.315-45.569 18.942-12.629 12.63-18.944 27.82-18.944 45.57V721.523456c0 17.749 6.315 33.109 18.944 46.078 12.629 12.971 27.817 19.454 45.569 19.454 18.4279 0 33.9569-6.484 46.5869-19.454 12.629-12.97 18.944-28.329 18.944-46.078v-389.102592c0-17.749-6.315-32.939-18.944-45.57C545.7746 274.2249 530.2456 267.9099 511.8177 267.9099L511.8177 267.9099z"  horiz-adv-x="1024" />

    
    <glyph glyph-name="rili" unicode="&#58926;" d="M890.12736 666.327808 846.738432 666.327808l0 12.89216c0 38.643712-31.466496 70.234112-69.922816 70.234112l-1.031168 0c-38.458368 0-69.922816-31.5904-69.922816-70.234112l0-12.89216L319.162368 666.327808l0 12.89216c0 38.643712-31.465472 70.234112-69.922816 70.234112l-1.062912 0c-38.45632 0-69.922816-31.5904-69.922816-70.234112l0-12.89216-43.295744 0c-38.458368 0-69.922816-31.622144-69.922816-70.206464l0-671.446016c0-38.644736 31.465472-70.23616 69.922816-70.23616l755.16928 0c38.458368 0 69.922816 31.591424 69.922816 70.23616L960.050176 596.121344C960.050176 634.705664 928.585728 666.327808 890.12736 666.327808zM733.830144 679.220992c0 23.222272 18.792448 42.138624 41.954304 42.138624l1.031168 0c23.130112 0 41.954304-18.917376 41.954304-42.138624l0-124.926976c0-23.22432-18.824192-42.139648-41.954304-42.139648l-1.031168 0c-23.161856 0-41.954304 18.915328-41.954304 42.139648L733.830144 679.220992zM206.22336 679.220992c0 23.222272 18.792448 42.138624 41.954304 42.138624l1.062912 0c23.098368 0 41.954304-18.917376 41.954304-42.138624l0-124.926976c0-23.22432-18.855936-42.139648-41.954304-42.139648l-1.062912 0c-23.161856 0-41.954304 18.915328-41.954304 42.139648L206.22336 679.220992zM890.12736-89.404672l-755.16928 0c-7.584768 0-13.984768 6.524928-13.984768 14.08L120.973312 418.350848l783.137792 0 0-493.67552C904.111104-82.879744 897.712128-89.404672 890.12736-89.404672zM223.755264 317.800192l129.024 0 0-63.488-129.024 0 0 63.488ZM449.035264 317.800192l128 0 0-63.488-128 0 0 63.488ZM673.291264 317.800192l125.952 0 0-63.488-125.952 0 0 63.488ZM223.755264 188.776192l129.024 0 0-62.464-129.024 0 0 62.464ZM449.035264 188.776192l128 0 0-62.464-128 0 0 62.464ZM673.291264 188.776192l125.952 0 0-62.464-125.952 0 0 62.464ZM223.755264 62.824192l129.024 0 0-65.536-129.024 0 0 65.536ZM449.035264 62.824192l128 0 0-65.536-128 0 0 65.536ZM673.291264 62.824192l125.952 0 0-65.536-125.952 0 0 65.536Z"  horiz-adv-x="1024" />

    
    <glyph glyph-name="fangdajing" unicode="&#58933;" d="M850.453-0.653l0.105 0.223-197.89 193.493c38.961 45.944 61.363 103.043 63.198 161.203 3.664 70.834-24.038 144.003-74.073 195.682-42.739 45.105-102.838 75.421-164.821 83.209-12.031 1.639-24.352 2.458-36.625 2.458-61.344 0-121.126-19.942-168.322-56.113-54.705-40.781-92.468-101.996-103.616-167.925-11.054-61.446 0.911-127.372 32.811-180.82 21.819-37.152 52.888-69.073 89.828-92.298 33.909-21.453 72.924-35.474 112.775-40.485 11.958-1.62 24.219-2.439 36.445-2.439 56.586 0 112.572 17.3 158.132 48.773l197.642-193.343 3.655-3.368 0.105 0.091c6.515-5.235 14.768-8.14 23.319-8.14 20.202 0 36.637 16.127 36.637 35.947 0 8.787-3.358 17.279-9.308 23.853M649.856 263.257c-32.378-64.734-97.46-112.073-169.899-123.548-33.909-5.773-69.646-3.986-102.941 5.139-64.972 17.433-120.583 63.58-148.808 123.528-32.677 66.559-28.602 150.391 10.387 213.6 34.702 58.404 95.873 99.427 163.56 109.707l4.802 0.71c2.525 0.409 5.069 0.799 7.555 1.082 8.369 0.858 16.882 1.286 25.282 1.286 34.569 0 68.716-7.283 98.811-21.085 55.059-24.691 98.955-70.579 120.409-125.929 23.529-59.109 20.125-128.061-9.157-184.488z"  horiz-adv-x="1024" />

    
    <glyph glyph-name="weibiaoti1" unicode="&#58918;" d="M859.695-182.993h-636.463c-22.854 0-64.186 10.054-64.186 58.74v118.784h-32.442c-17.222 0-31.185 12.893-31.185 28.765 0 15.919 13.964 28.765 31.185 28.765h32.489v118.039l-32.489 0c-17.222 0-31.185 12.847-31.185 28.812 0 15.825 13.964 28.719 31.185 28.719h32.489l0 118.924h-31.837c-17.222 0-31.185 12.847-31.185 28.812 0 15.872 13.964 28.765 31.185 28.765h31.837v118.225h-34.816c-17.222 0-31.185 12.893-31.185 28.812 0 15.872 13.964 28.765 31.185 28.765h34.816v116.922c0 29.417 19.921 60.649 65.722 60.649h634.88c52.829 0 95.558-39.471 95.558-88.204v-764.183c-0.047-48.687-42.775-88.111-95.558-88.111zM222.906 698.671c-0.093-0.512-0.14-1.117-0.14-1.815v-116.922h30.906c17.222 0 31.185-12.847 31.185-28.765 0-15.919-13.964-28.812-31.185-28.812h-30.906v-118.272h33.885c17.222 0 31.185-12.893 31.185-28.765 0-15.919-13.964-28.812-31.185-28.812l-33.885-0v-118.924h33.187c17.222 0 31.185-12.893 31.185-28.719 0-15.965-13.964-28.812-31.185-28.812l-33.187-0v-118.039h33.187c17.222 0 31.185-12.847 31.185-28.765 0-15.872-13.964-28.765-31.185-28.765l-33.187 0v-118.784c0.186 0 0.326 0 0.512 0h509.068l0 823.017h-507.578c-0.745 0-1.35 0-1.862-0.047zM891.578 669.3c0 16.244-14.336 29.417-31.93 29.417h-63.674v-823.017h63.674c17.594 0 31.93 13.172 31.93 29.417v764.183z"  horiz-adv-x="1024" />

    
    <glyph glyph-name="youjiantou" unicode="&#58890;" d="M679.374008 300.246617 280.140305 699.468041c-11.102872 11.090593-11.102872 29.109991 0 40.177048 11.090593 11.109012 29.092595 11.109012 40.188304 0l414.455383-414.450267c2.229784-1.246387 4.973268-0.947582 6.874571-2.843768 6.076392-6.076392 8.508791-14.167674 7.936763-22.103414 0.572028-7.941879-1.860371-16.034185-7.936763-22.097274-1.902326-1.908466-4.650927-1.603521-6.886851-2.856048L320.329633-139.169251c-11.096732-11.084453-29.097712-11.084453-40.188304 0-11.102872 11.114129-11.102872 29.091572 0 40.200584L679.374008 300.246617z"  horiz-adv-x="1024" />

    
    <glyph glyph-name="shijian" unicode="&#58880;" d="M513.222038 781.330518c-266.503034 0-482.555379-216.0467-482.555379-482.546912 0-266.52279 216.055166-482.561023 482.555379-482.561023 266.517146 0 482.555379 216.041055 482.555379 482.561023C995.777416 565.283819 779.736361 781.330518 513.222038 781.330518zM513.222038-105.826641c-223.463595 0-404.607425 181.138186-404.607425 404.610247 0 223.460772 181.14383 404.604603 404.607425 404.604603 223.466417 0 404.607425-181.14383 404.607425-404.604603C917.829463 75.311545 736.688455-105.826641 513.222038-105.826641zM513.222038 682.35674c-211.841535 0-383.575956-171.725954-383.575956-383.573133 0-211.855646 171.734421-383.587245 383.575956-383.587245 211.852824 0 383.584422 171.731599 383.584422 383.587245C896.80646 510.630786 725.074862 682.35674 513.222038 682.35674zM777.199151 479.820191l20.218659-34.270683-63.887462-37.688438-20.215837 34.273505L777.199151 479.820191zM654.921986 593.557203l35.489899-18.037053-33.615919-66.119869-35.470143 18.028586L654.921986 593.557203zM202.897798 314.492297l74.166127 0 0-39.796665L202.897798 274.695632 202.897798 314.492297zM234.670782 112.949183l-15.005948 36.85305 68.693768 27.965758 15.017237-36.858694L234.670782 112.949183zM288.77912 402.428223l-63.887462 37.688438 20.221481 34.27915 63.890285-37.688438L288.77912 402.428223zM369.165505 593.560025l33.610275-66.131158-35.484254-18.034231-33.610275 66.131158L369.165505 593.560025zM377.299253-6.167053l-35.484254 18.034231 33.596163 66.114224 35.487077-18.031409L377.299253-6.167053zM531.696541-25.59548 491.439848-25.59548l0 66.323071 40.256693 0L531.696541-25.59548zM649.458093-6.15012l-33.613097 66.111402 35.481432 18.039875 33.613097-66.10858L649.458093-6.15012zM491.439848 269.268429l12.655006 332.851506 41.614199-303.344795 233.366899-161.563002L491.439848 269.268429zM751.031172 274.695632 751.031172 314.492297l74.166127 0 0-39.796665L751.031172 274.695632z"  horiz-adv-x="1024" />

    
    <glyph glyph-name="key" unicode="&#58921;" d="M517.864 396.165c-56.774 54.214-58.85 144.188-4.637 200.961 54.213 56.773 144.188 58.849 200.961 4.637 56.775-54.214 58.85-144.187 4.637-200.961-54.212-56.774-144.186-58.85-200.961-4.637zM687.195 431.006c37.534 39.308 36.095 101.597-3.21 139.129-39.304 37.532-101.594 36.094-139.128-3.211-37.533-39.307-36.093-101.594 3.212-139.126 39.305-37.534 101.592-36.1 139.126 3.208zM479.104 213.083l-101.496-106.29c26.207-25.025 27.168-66.54 2.142-92.749-25.028-26.21-66.544-27.166-92.75-2.141l-58.361-53.028c0 0-68.751-11.101-100.379 19.101-31.63 30.206-37.865 112.721-37.865 112.721l246.374 258.303c-63.174 117.609-47.247 267.163 49.939 368.94 36.518 38.243 80.347 65.157 127.165 81.041l1.085-46.27c-35.443-14.08-68.567-35.597-96.619-64.974-80.271-84.065-96.1-205.866-49.434-305.083l23.076-39.164-245.89-257.505c0 0 0.594-49.779 17.243-65.678 14.888-14.217 61.832-9.829 61.832-9.829l60.408 63.261 31.631-30.204c8.741-8.346 22.57-8.031 30.917 0.711 8.347 8.742 8.027 22.571-0.713 30.917l-31.632 30.208 156.456 163.847 39.009-22.481c101.259-42.039 222.202-20.61 302.475 63.453 104.251 109.179 100.26 282.211-8.917 386.465-33.591 32.076-73.261 53.83-115.093 65.493l-1.03 45.153c53.198-12.471 103.945-38.548 146.324-79.016 126.645-120.931 131.278-321.65 10.345-448.296-97.186-101.777-245.844-124.588-366.24-66.907z"  horiz-adv-x="1024" />

    
    <glyph glyph-name="touxiang" unicode="&#58886;" d="M938.561096-144.671569c-13.127995 61.795415-38.123272 166.30056-38.123272 166.30056s-13.354146 64.803935-34.505885 86.895069c-36.536125 38.151925-263.491113 70.272483-272.418436 138.672316-2.426259 18.584264-3.162016 51.139727-2.474354 59.066257 18.603707 16.780175 33.625842 38.440497 37.241182 44.641733 4.514827 7.780197 13.766538 29.572526 20.836561 56.637951 11.753695 1.390673 22.409382 23.159466 30.249955 47.145763 8.403391 25.814945 2.038426 48.418756-9.892301 52.582589 8.163937 34.235732 15.029298 90.057085-4.981455 134.071532-9.070586 19.962657 11.824303 60.148915-26.062586 103.957677-32.476669-48.750307-128.373763 29.17446-202.303542-8.133238-30.446429-15.364943-43.132356-38.150902-47.702442-60.405765-24.356734-19.6045-30.315446-44.503587-33.545-59.777455-8.388041-39.743166-9.673313-74.665537 1.211595-110.946858-10.018168-6.540973-14.688537-27.675316-6.982018-51.348482 7.823176-23.986297 18.494213-45.744857 30.232558-47.145763 7.070023-27.065426 16.33913-48.858778 20.853957-56.637951 3.844561-6.625908 20.707624-30.918173 41.085744-48.024783l0.858554 0c-0.032746-13.368472-0.896416-41.74373-2.712785-55.68423-8.927323-68.400856-237.098-99.301633-272.418436-138.672316-19.059078-21.239743-70.035076-209.16788-80.750115-253.195629L938.561096-144.672592z"  horiz-adv-x="1024" />

    
    <glyph glyph-name="xiao47" unicode="&#58891;" d="M317.4144-50.5152 158.3616 105.9264 58.3168-160.8768ZM827.9552 449.7856 663.7568 619.0528 187.8272 149.5232 358.4768-27.4496ZM963.2 579.1168c22.2976 25.0624 0 73.1648 0 73.1648s-43.4688 48.1024-93.4656 84.6592c-50.048 36.5312-88.5504 0-88.5504 0l-84.6336-84.6592 171.904-171.264C868.4544 481.0176 940.928 554.1056 963.2 579.1168z"  horiz-adv-x="1024" />

    
    <glyph glyph-name="gongwenbao" unicode="&#58919;" d="M325 60.8c15.7 0 28.4 12.7 28.4 28.4L353.4 327c0 15.7-12.7 28.4-28.4 28.4l-26.8 0c-15.7 0-28.4-12.7-28.4-28.4l0-237.8c0-15.7 12.7-28.4 28.4-28.4L325 60.8zM311.6 331.7c11.7 0 21.3-9.5 21.3-21.3 0-11.7-9.5-21.3-21.3-21.3-11.7 0-21.3 9.5-21.3 21.3C290.4 322.2 299.9 331.7 311.6 331.7zM290.4 95.9c0 11.7 9.5 21.3 21.3 21.3 11.7 0 21.3-9.5 21.3-21.3 0-11.7-9.5-21.3-21.3-21.3C299.9 74.6 290.4 84.1 290.4 95.9zM748.7 60.8c15.7 0 28.4 12.7 28.4 28.4L777.1 327c0 15.7-12.7 28.4-28.4 28.4L722 355.4c-15.7 0-28.4-12.7-28.4-28.4l0-237.8c0-15.7 12.7-28.4 28.4-28.4L748.7 60.8zM735.3 331.7c11.7 0 21.3-9.5 21.3-21.3 0-11.7-9.5-21.3-21.3-21.3-11.7 0-21.3 9.5-21.3 21.3C714.1 322.2 723.6 331.7 735.3 331.7zM714.1 95.9c0 11.7 9.5 21.3 21.3 21.3 11.7 0 21.3-9.5 21.3-21.3 0-11.7-9.5-21.3-21.3-21.3C723.6 74.6 714.1 84.1 714.1 95.9zM955 593.2 693.8 593.2l0 74c0 23.4-19.1 42.5-42.5 42.5l-258.9 0c-23.5 0-42.5-19.1-42.5-42.5l0-74-261.2 0c-15.7 0-28.4-12.7-28.4-28.4L60.3 295.5c0-15.7 12.7-28.4 28.4-28.4l154.5 0 0 92.3c0 10.4 8.5 18.9 18.9 18.9l99.2 0c10.4 0 18.9-8.5 18.9-18.9l0-92.3 286.7 0 0 92.3c0 10.4 8.5 18.9 18.9 18.9L785 378.3c10.4 0 18.9-8.5 18.9-18.9l0-92.3L955 267.1c15.7 0 28.4 12.7 28.4 28.4l0 269.3C983.3 580.5 970.6 593.2 955 593.2zM378.2 667.3c0 7.8 6.4 14.2 14.2 14.2l258.9 0c7.8 0 14.2-6.4 14.2-14.2l0-74-287.3 0L378.2 667.3zM803.9 219.5 803.9 46c0-10.4-8.5-18.9-18.9-18.9l-99.2 0c-10.4 0-18.9 8.5-18.9 18.9L666.9 219.5l-286.7 0L380.2 46c0-10.4-8.5-18.9-18.9-18.9L262 27.1c-10.4 0-18.9 8.5-18.9 18.9L243.1 219.5l-173.4 0c-3.3 0-6.5 0.7-9.5 1.7l0-285.6c0-15.7 12.7-28.4 28.4-28.4L955-92.8c15.7 0 28.4 12.7 28.4 28.4L983.4 221.3c-3-1.1-6.1-1.7-9.5-1.7L803.9 219.6z"  horiz-adv-x="1024" />

    
    <glyph glyph-name="denglu" unicode="&#58881;" d="M511.845481 232.36253c-60.191894 0-116.78175 23.439852-159.343101 66.002226-42.562375 42.562375-66.002226 99.151207-66.002226 159.343101s23.439852 116.780727 66.002226 159.343101c42.561351 42.562375 99.151207 66.002226 159.343101 66.002226 60.190871 0 116.780727-23.439852 159.342078-66.002226 42.562375-42.562375 66.002226-99.151207 66.002226-159.343101s-23.439852-116.780727-66.002226-159.343101C628.627231 255.802382 572.037375 232.36253 511.845481 232.36253zM511.845481 635.980078c-98.30084 0-178.273243-79.972403-178.273243-178.273243 0-98.299817 79.972403-178.272219 178.273243-178.272219 98.299817 0 178.272219 79.972403 178.272219 178.272219C690.1177 556.007675 610.145297 635.980078 511.845481 635.980078zM855.697853-64.993878l-47.072085 0c0 78.93477-30.739095 153.143912-86.553285 208.959126-55.815213 55.81419-130.024355 86.553285-208.959126 86.553285-78.933747 0-153.143912-30.739095-208.959126-86.553285-55.81419-55.815213-86.553285-130.024355-86.553285-208.959126l-47.072085 0c0 46.239114 9.060353 91.105974 26.931373 133.35624 17.256012 40.797172 41.954531 77.432557 73.408917 108.886943s68.089771 56.152904 108.886943 73.408917c42.25129 17.871019 87.11815 26.931373 133.35624 26.931373 46.239114 0 91.105974-9.060353 133.35624-26.931373 40.797172-17.256012 77.432557-41.954531 108.886943-73.408917s56.152904-68.089771 73.408917-108.886943C846.636476 26.112096 855.697853-18.754764 855.697853-64.993878z"  horiz-adv-x="1024" />

    
    <glyph glyph-name="mima" unicode="&#58882;" d="M510.8672 285.186619c-29.501918 0-53.407374-23.903409-53.407374-53.408397 0-15.816221 6.875594-30.021757 17.802458-39.800471l0-49.206702c0-19.665899 15.940041-35.606962 35.605939-35.606962 19.661805 0 35.605939 15.941064 35.605939 35.606962l0 49.206702c10.926864 9.778714 17.803481 23.984251 17.803481 39.800471C564.27662 261.28321 540.370141 285.186619 510.8672 285.186619L510.8672 285.186619zM760.108774 445.403624l-35.606962 0 0 89.010243c0 117.993345-95.637174 213.626425-213.634612 213.626425s-213.634612-95.633081-213.634612-213.626425l0-89.010243-35.605939 0c-49.167816 0-89.014336-39.84652-89.014336-89.010243l0-338.243631c0-49.15963 39.84652-89.00615 89.014336-89.00615l498.481102 0c49.148373 0 89.014336 39.84345 89.014336 89.00615l0 338.243631C849.123111 405.558128 809.256124 445.403624 760.108774 445.403624L760.108774 445.403624zM510.8672 712.435377c98.31619 0 178.028673-79.70839 178.028673-178.020486l0-89.010243L332.862064 445.404648l0 89.010243-0.023536 0C332.838527 632.726987 412.552034 712.435377 510.8672 712.435377L510.8672 712.435377zM813.516148 18.153844c0-29.501918-23.906479-53.404304-53.407374-53.404304L261.627672-35.25046c-29.502941 0-53.408397 23.902386-53.408397 53.404304L208.219275 356.393381c0 29.502941 23.906479 53.408397 53.408397 53.408397l498.481102 0c29.501918 0 53.407374-23.906479 53.407374-53.408397L813.516148 18.153844 813.516148 18.153844zM813.516148 18.153844"  horiz-adv-x="1024" />

    
    <glyph glyph-name="gongzuoliuchengtu" unicode="&#58892;" d="M983.964-57.145 846.307-57.145c-21.721 0-39.33 17.575-39.33 39.249L806.977 99.859c0 21.677 17.609 39.249 39.33 39.249l39.33 0L885.637 315.737c0 21.679-17.607 39.251-39.33 39.251L531.664 354.988l0-215.88 39.332 0c21.721 0 39.33-17.572 39.33-39.249l0-117.756c0-21.674-17.609-39.249-39.33-39.249L433.34-57.146c-21.723 0-39.33 17.575-39.33 39.249L394.01 99.859c0 21.677 17.607 39.249 39.33 39.249l39.33 0 0 215.88L177.693 354.988c-21.721 0-39.33-17.572-39.33-39.251l0-176.629 39.33 0c21.721 0 39.33-17.572 39.33-39.249l0-117.756c0-21.674-17.609-39.249-39.33-39.249L40.036-57.146c-21.721 0-39.33 17.575-39.33 39.249L0.706 99.859c0 21.677 17.609 39.249 39.33 39.249l39.33 0L79.366 335.364c0 43.355 35.219 78.502 78.663 78.502L472.67 413.866 472.67 629.743l-39.33 0c-21.723 0-39.33 17.575-39.33 39.253L394.01 786.748c0 21.679 17.607 39.251 39.33 39.251l137.657 0c21.721 0 39.33-17.572 39.33-39.251l0-117.751c0-21.679-17.609-39.253-39.33-39.253l-39.332 0 0-215.878 334.309 0c43.441 0 78.66-35.147 78.66-78.502l0-196.255 39.33 0c21.721 0 39.33-17.572 39.33-39.249l0-117.756C1023.294-39.571 1005.684-57.145 983.964-57.145z"  horiz-adv-x="1024" />

    
    <glyph glyph-name="laba" unicode="&#58887;" d="M128 416.499l171.001 0 213.001 213.001 0-683.001-213.001 214-171.001 0 0 256zM597.001 662.499c42.656-10 82.329-26.5 119.001-49.5 36.656-23.001 68.329-50.844 95.001-83.5 26.656-33.344 47.5-70.5 62.5-111.5s22.5-84.172 22.5-129.5c0-46-7.5-89.5-22.5-130.5s-35.844-77.844-62.5-110.5c-26.672-33.344-58.343-61.5-95.001-84.5-36.672-23.001-76.343-39.5-119.001-49.5l0 88c31.328 9.328 60 23.156 86 41.5 26 18.329 48.329 40.156 67.001 65.5 19.328 24.656 34.329 52.329 45.001 83.001 10.656 30.656 16 63.001 16 97.001 0 33.328-5.344 65.328-16 96-10.672 30.656-25.671 58.656-45.001 84-18.672 24.656-41.001 46.156-67.001 64.5-26 18.329-54.672 32.156-86 41.5l0 87.999zM704 288.499c0-19.344-2.672-37.671-8-55.001-5.344-17.344-12.672-33.344-22-48-9.344-14.672-20.5-27.844-33.5-39.5-13.001-11.671-27.5-21.5-43.5-29.5l0 344c16-8 30.5-18 43.5-30s24.156-25.344 33.5-40c9.328-14.672 16.656-30.672 22-48 5.328-17.343 8-35.343 8-54z"  horiz-adv-x="1024" />

    
    <glyph glyph-name="jiantouxia" unicode="&#58893;" d="M957.991122 514.105333c0-7.90811-3.024893-15.811104-9.052167-21.838378L534.06504 77.332664c-12.072967-12.07399-31.591509-12.07399-43.669592 0L75.461157 492.266955c-12.07399 12.079106-12.07399 31.596625 0 43.670615 12.072967 12.075013 31.591509 12.075013 43.669592 0l393.071354-393.103076 393.041678 393.103076c12.07399 12.075013 31.591509 12.075013 43.665499 0C954.966229 529.885737 957.991122 522.008326 957.991122 514.105333L957.991122 514.105333zM957.991122 514.105333"  horiz-adv-x="1024" />

    
    <glyph glyph-name="wenda" unicode="&#58924;" d="M518.948249 667.750665c-184.30154 0-344.030427-142.601812-344.030427-318.991148 0-123.787304 71.448262-217.197764 169.599699-275.357372l-33.341363-109.37506c-3.291976-11.120268 2.629897-22.909779 13.412474-26.716478 1.291412-0.453325 7.449669-5.110391 29.723975-5.110391 30.110785 0 75.712379 8.507768 126.858246 47.415916 9.420557 7.169283 14.015202 18.929118 6.975878 28.519544-7.031137 9.582239-21.052478 2.673899-30.791284-4.730745-46.236044-35.168987-88.994893-39.813774-111.642706-39.375799l31.968086 108.003829c0.288572 0.809435 0.532119 1.623987 0.735757 2.465145 2.38942 10.064216-2.292206 20.482497-11.332093 25.210172-96.377024 50.445926-159.935596 146.534378-159.935596 250.77244 0 157.834748 145.555074 285.311071 312.007083 285.311071 166.44587 0 300.021098-129.353067 300.021098-287.190885 0-155.575288-132.109854-279.332916-296.055786-284.146549-11.105942-0.323365-18.390859-6.811126-19.449981-18.066471-1.068332-11.241019 8.154727-17.087167 18.62315-19.481703l1.041726-0.232291c2.942005-0.693802 5.843078-0.693802 8.573259-0.138146 179.508373 7.437389 319.502801 147.891282 319.502801 320.41252C851.411223 523.331461 703.252859 667.750665 518.948249 667.750665zM328.401472 428.70429l199.9878 0c9.408277 0 15.251356 5.039783 15.251356 14.609743 0 9.564843-5.843078 16.422018-15.251356 16.422018L328.401472 459.736051c-9.408277 0-15.251356-5.951549-15.251356-15.516392C313.150116 434.653793 318.993195 428.70429 328.401472 428.70429zM718.721155 338.717813c15.519462 16.125259 23.280216 35.121915 23.280216 56.988945 0 10.81737-2.091638 21.091364-6.269797 30.81175-4.175089 9.711176-9.847276 18.223037-17.010419 25.51614-7.164167 7.283894-15.524578 13.08604-25.072025 17.393135-9.555633 4.304026-19.699668 6.455015-30.443359 6.455015s-20.900006-2.097778-30.443359-6.293333c-9.555633-4.203742-17.910928-9.93835-25.075095-17.231453-7.164167-7.283894-12.836353-15.795754-17.007349-25.50693-4.180206-9.723455-6.271844-20.10899-6.271844-31.144324 0-4.972245 1.600451-9.114588 4.798283-12.423961 3.203972-3.312442 7.249101-4.969175 12.132318-4.969175 2.38328 0 4.609994 0.434905 6.675026 1.321088 2.056845 0.88516 3.847631 2.1295 5.369288 3.733021 1.520633 1.594311 2.742461 3.445472 3.668553 5.542226 0.917906 2.094708 1.379417 4.360308 1.379417 6.795776 0 6.398734 1.167592 12.365632 3.5038 17.887392 2.333138 5.51869 5.53711 10.329253 9.599635 14.413268 4.077875 4.082992 8.813736 7.319709 14.248516 9.69378 5.4225 2.37714 11.235902 3.563152 17.422811 3.563152 6.075369 0 11.824303-1.220804 17.258059-3.645017 5.4225-2.433422 10.17678-5.725398 14.239306-9.855462 4.080945-4.148483 7.302313-8.976442 9.69071-14.498202 2.38328-5.5279 3.583618-11.377118 3.583618-17.557888 0-12.370749-4.344958-23.14207-13.024641-32.305777l-25.560142-24.182772c-15.527648-15.798824-23.283286-33.629935-23.283286-53.508681 0-4.966105 1.627057-9.084912 4.88424-12.339026 3.257184-3.257184 7.328919-4.892427 12.212136-4.892427 4.88424 0 8.92937 1.636267 12.132318 4.892427 3.197832 3.254114 4.798283 7.372921 4.798283 12.339026 0 10.487865 4.336772 20.146852 13.024641 28.987195L718.721155 338.717813zM663.20577 255.168955c-6.41306 0-11.859096-2.294252-16.366759-6.872524-4.501524-4.586458-6.754844-10.140964-6.754844-16.651238 0-6.522554 2.25332-12.06478 6.754844-16.651238 4.50664-4.583388 9.952676-6.872524 16.366759-6.872524 6.398734 0 11.856026 2.289136 16.363689 6.872524 4.501524 4.586458 6.754844 10.129708 6.754844 16.651238 0 6.510274-2.25332 12.06478-6.754844 16.651238C675.061796 252.87368 669.604504 255.168955 663.20577 255.168955zM328.401472 316.777105l199.9878 0c9.408277 0 15.251356 5.045923 15.251356 14.612813 0 9.56689-5.843078 16.428158-15.251356 16.428158L328.401472 347.818075c-9.408277 0-15.251356-5.951549-15.251356-15.519462C313.150116 322.731724 318.993195 316.777105 328.401472 316.777105zM328.401472 204.855036l199.9878 0c9.408277 0 15.251356 5.045923 15.251356 14.612813 0 9.56689-5.843078 16.422018-15.251356 16.422018L328.401472 235.889867c-9.408277 0-15.251356-5.951549-15.251356-15.516392C313.150116 210.803515 318.993195 204.855036 328.401472 204.855036z"  horiz-adv-x="1024" />

    
    <glyph glyph-name="yewubaobiao" unicode="&#58894;" d="M886.2848 599.063467l-133.674667 119.245653c-6.19776 5.451093-14.62272 8.523947-23.359147 8.523947L161.518933 726.833067c-18.387627 0-33.299627-13.259947-33.299627-29.618347l0-792.554667c0-16.384853 15.218347-31.327573 33.605973-31.327573l701.640533 0c18.387627 0 32.753493 18.11968 32.753493 34.50368l0 670.109013C896.22016 585.894827 892.62336 593.474987 886.2848 599.063467zM853.330773-84.077653l-682.31936 1.053867 0.44544 767.061333 511.429973 0.205653 0-112.648533c0-9.79712 6.591147-15.121067 17.66144-15.121067l152.242347-0.205653L853.330773-84.077653zM725.126827 428.704853l-425.813333 0c-0.234667 0-0.426667 0.192-0.426667 0.426667l0 41.736533c0 0.234667 0.192 0.426667 0.426667 0.426667l425.813333 0c0.234667 0 0.426667-0.192 0.426667-0.426667l0-41.736533C725.553493 428.896 725.361493 428.704853 725.126827 428.704853zM725.126827 300.935253l-425.813333 0c-0.234667 0-0.426667 0.192-0.426667 0.426667l0 41.736533c0 0.234667 0.192 0.426667 0.426667 0.426667l425.813333 0c0.234667 0 0.426667-0.192 0.426667-0.426667l0-41.736533C725.553493 301.127253 725.361493 300.935253 725.126827 300.935253zM725.126827 173.165653l-425.813333 0c-0.234667 0-0.426667 0.192-0.426667 0.426667l0 41.736533c0 0.234667 0.192 0.426667 0.426667 0.426667l425.813333 0c0.234667 0 0.426667-0.192 0.426667-0.426667l0-41.736533C725.553493 173.357653 725.361493 173.165653 725.126827 173.165653zM725.126827 45.396053l-425.813333 0c-0.234667 0-0.426667 0.192-0.426667 0.426667l0 41.736533c0 0.234667 0.192 0.426667 0.426667 0.426667l425.813333 0c0.234667 0 0.426667-0.192 0.426667-0.426667l0-41.736533C725.553493 45.588053 725.361493 45.396053 725.126827 45.396053z"  horiz-adv-x="1024" />

    
    <glyph glyph-name="chat" unicode="&#58909;" d="M801.365333 214.496l0 399.573333c0 39.466667-32 71.552-71.552 71.552l-626.261333 0c-39.509333 0.042667-71.552-32.042667-71.552-71.552l0-399.573333c0-39.509333 32.042667-71.552 71.552-71.552l119.338667 0 0-164.394667 182.528 164.394667 324.394667 0c39.594667 0 71.594667 32.042667 71.594667 71.552zM920.490667 528.522667l-89.557333 0c0 0 0-319.104 0-349.098667s-38.912-68.522667-68.906667-68.522667-350.250667-1.749333-350.250667-1.749333c0-39.509333 32.042667-63.530667 71.552-63.530667l137.898667 0 179.882667-163.242667-0.213333 163.242667 119.552 0c39.552 0 71.552 24.021333 71.552 63.530667l0 349.824c0 39.466667-32 69.546667-71.552 69.546667z"  horiz-adv-x="1024" />

    
    <glyph glyph-name="iconfontsuo" unicode="&#58925;" d="M834.424907 410.915295 834.424907 410.915295 834.424907 545.085499c0 0.101567 0 0.406269 0 0.507836 0 0.609403 0 1.42194 0 2.031343l0 1.218806 0 0C832.698265 740.602261 688.676048 896 511.949208 896c-177.844079 0-322.374132-157.12438-322.374132-350.406665l0-134.67804c-54.744694 0-99.231105-48.345963-99.231105-107.762745l0-323.389804c0-59.416782 44.486411-107.762745 99.231105-107.762745l644.951399 0c54.744694 0 99.231105 48.345963 99.231105 107.762745L933.757579 303.152549C933.656012 362.569331 889.1696 410.915295 834.424907 410.915295zM239.139844 545.593335c0 163.52311 122.286848 296.474509 272.809363 296.474509 150.319381 0 272.809363-132.951399 272.809363-296.474509 0-0.507836 0-1.117239 0.101567-1.625074l0-133.154533-545.720294 0L239.139844 545.593335zM884.091243-20.237255c0-29.657608-22.344773-53.932156-49.666336-53.932156l-644.951399 0c-27.321563 0-49.666336 24.172982-49.666336 53.932156L139.807172 303.152549c0 29.657608 22.344773 53.932156 49.666336 53.932156l644.951399 0c27.321563 0 49.666336-24.172982 49.666336-53.932156L884.091243-20.237255zM511.949208 249.220393c-27.42313 0-49.666336-24.172982-49.666336-53.932156 0-19.805594 10.258282-36.361039 24.782384-45.60365l0-89.07439c0-14.930371 11.172386-27.016862 24.782384-27.016862 13.609998 0 24.782384 12.188058 24.782384 27.016862l0 89.07439c14.524102 9.445745 24.782384 25.899623 24.782384 45.60365C561.513977 225.047411 539.372338 249.220393 511.949208 249.220393z"  horiz-adv-x="1024" />

    
    <glyph glyph-name="jifen" unicode="&#58910;" d="M131.968 822.848c-39.232-22.464-58.88-46.848-58.88-73.152l0-73.152c0-26.304 19.648-50.688 58.88-73.152 39.232-22.528 92.608-40.32 160-53.44C359.424 536.832 432.768 530.304 512 530.304c79.232 0 152.576 6.592 219.968 19.712 67.392 13.12 120.768 30.976 160 53.44 39.232 22.464 58.88 46.848 58.88 73.152L950.848 749.696c0 26.304-19.648 50.688-58.88 73.152-39.232 22.464-92.608 40.256-160 53.44C664.576 889.408 591.232 896 512 896 432.768 896 359.424 889.408 291.968 876.288 224.576 863.104 171.2 845.312 131.968 822.848M73.152 334.848l0-97.152c0-26.304 19.648-50.688 58.88-73.152 39.232-22.464 92.608-40.256 160-53.44 67.456-13.12 140.8-19.712 220.032-19.712 79.232 0 152.576 6.592 219.968 19.712 67.392 13.12 120.768 30.976 160 53.44 39.232 22.464 58.88 46.848 58.88 73.152L950.912 334.848c-45.312-32-107.264-56.192-185.728-72.576C686.656 245.888 602.304 237.696 512 237.696c-90.304 0-174.656 8.192-253.184 24.576C180.352 278.656 118.464 302.848 73.152 334.848M73.152 115.392l0-97.152c0-26.304 19.648-50.688 58.88-73.152 39.232-22.464 92.608-40.256 160-53.44C359.424-121.472 432.768-128 512-128c79.232 0 152.576 6.592 219.968 19.712 67.392 13.184 120.768 30.976 160 53.44 39.232 22.464 58.88 46.848 58.88 73.152l0 97.152c-45.312-32-107.264-56.192-185.728-72.576C686.656 26.496 602.304 18.304 512 18.304c-90.304 0-174.656 8.192-253.184 24.576C180.352 59.264 118.464 83.392 73.152 115.392M73.152 554.304l0-97.152c0-26.304 19.648-50.688 58.88-73.152 39.232-22.464 92.608-40.256 160-53.44C359.424 317.44 432.768 310.848 512 310.848c79.232 0 152.576 6.592 219.968 19.712 67.392 13.12 120.768 30.976 160 53.44 39.232 22.464 58.88 46.848 58.88 73.152L950.848 554.304c-45.312-32-107.264-56.192-185.728-72.576C686.656 465.344 602.304 457.152 512 457.152c-90.304 0-174.656 8.192-253.184 24.576C180.352 498.048 118.464 522.304 73.152 554.304"  horiz-adv-x="1024" />

    
    <glyph glyph-name="1-copy" unicode="&#58932;" d="M895.995 174.974l-386.971 420.571-381.020-422.746z"  horiz-adv-x="1024" />

    
    <glyph glyph-name="comiisjiahao" unicode="&#58936;" d="M828.020 699.482c-84.542 84.134-196.912 130.466-316.474 130.466-119.558 0-231.954-46.332-316.5-130.466-84.577-84.162-131.169-196.113-131.169-315.196 0-119.112 46.592-231.028 131.135-315.189 84.548-84.133 196.947-130.467 316.507-130.467 119.561 0 231.96 46.334 316.475 130.467 84.611 84.189 131.198 196.14 131.168 315.222 0.030 119.085-46.529 231-131.141 315.162v0zM735.389 352.315h-191.864v-191.864c0-17.683-14.325-31.974-31.979-31.974-17.646 0-31.973 14.291-31.973 31.974l0 191.864h-191.862c-17.648 0-31.972 14.323-31.972 31.971 0 17.653 14.324 31.98 31.972 31.98h191.863v191.861c0 17.648 14.326 31.974 31.973 31.974 17.654 0 31.979-14.326 31.979-31.974v-191.861h191.863c17.682 0 31.973-14.327 31.973-31.98 0-17.648-14.291-31.971-31.973-31.971v0zM735.389 352.315z"  horiz-adv-x="1024" />

    
    <glyph glyph-name="zujianxuanze" unicode="&#58911;" d="M916.4 826c20.3 0 37.6-7.1 51.8-21.3s21.3-31.4 21.3-51.8l0-55.6c0-20.3-7.1-37.6-21.3-51.8-14.2-14.2-31.4-21.3-51.8-21.3L107.6 624.2c-20.3 0-37.6 7.1-51.8 21.3-14.2 14.2-21.3 31.4-21.3 51.8L34.5 753c0 20.3 7.1 37.6 21.3 51.8C70 818.9 87.3 826 107.6 826L916.4 826zM916.4 484.8c20.3 0 37.6-7.1 51.8-21.3 14.2-14.2 21.3-31.4 21.3-51.8l0-55.6c0-20.3-7.1-37.6-21.3-51.8s-31.4-21.3-51.8-21.3L107.6 283c-20.3 0-37.6 7.1-51.8 21.3-14.2 14.2-21.3 31.4-21.3 51.8l0 55.6c0 20.3 7.1 37.6 21.3 51.8 14.2 14.2 31.4 21.3 51.8 21.3L916.4 484.8zM916.4 143.7c20.3 0 37.6-7.1 51.8-21.3 14.2-14.2 21.3-31.4 21.3-51.8l0-55.6c0-20.3-7.1-37.6-21.3-51.8s-31.4-21.3-51.8-21.3L107.6-58.1c-20.3 0-37.6 7.1-51.8 21.3-14.2 14.2-21.3 31.4-21.3 51.8l0 55.6c0 20.3 7.1 37.6 21.3 51.8 14.2 14.2 31.4 21.3 51.8 21.3L916.4 143.7z"  horiz-adv-x="1024" />

    
    <glyph glyph-name="x" unicode="&#58895;" d="M557.2 384l231 231c12.5 12.5 12.5 32.7 0 45.2s-32.7 12.5-45.2 0l-231-231-231 231c-12.5 12.5-32.7 12.5-45.2 0-12.5-12.5-12.5-32.7 0-45.2l231-231-231-231c-12.5-12.5-12.5-32.7 0-45.2 6.2-6.2 14.4-9.4 22.6-9.4 8.2 0 16.4 3.1 22.6 9.4l231 231 231-231c6.2-6.2 14.4-9.4 22.6-9.4s16.4 3.1 22.6 9.4c12.5 12.5 12.5 32.7 0 45.2L557.2 384z"  horiz-adv-x="1024" />

    
    <glyph glyph-name="skin" unicode="&#58888;" d="M275.28 819.456c28.928 0 57.856 0 86.784 0 6.4-3.712 15.744-5.12 21.568-9.536 7.936-5.952 13.632-13.504 19.84-21.248 8.384-10.432 24.192-20.544 37.504-25.984 15.552-6.272 32.064-9.856 51.136-13.312 6.016-0.384 12.032-0.64 18.048-1.024 8.064-1.216 19.584 0.704 26.24 2.048 35.904 7.040 53.888 12.8 77.504 31.104 9.216 7.232 14.144 19.136 23.744 26.048 5.376 2.88 10.816 5.888 16.256 8.832 4.672 1.792 8 0.768 11.84 3.072 8.576 0 17.088 0 25.536 0 24.64 0 61.248 3.264 77.504-5.056 11.456-6.016 20.224-15.488 29.184-24 12.48-11.84 24.96-23.68 37.376-35.52 40.256-38.336 80.576-76.608 120.768-114.944 12.672-13.248 27.328-24.704 39.936-38.016 10.368-10.688 21.376-18.688 27.072-34.176 0.192-2.496 0.256-4.992 0.32-7.488 2.88-16.896-4.992-29.184-12.928-38.976-33.728-31.936-67.456-63.936-101.248-95.808-12.288-13.376-27.648-32-49.344-35.904-29.568-5.312-46.336 12.48-60.16 25.6-4.48 4.352-8.256 9.92-14.080 13.056-0.256-0.256-0.704-0.512-1.088-0.704 0-114.112 0-228.224 0-342.4-0.064-32.128-0.192-64.384-0.384-96.512-2.368-11.136-9.792-22.656-17.92-28.736-20.288-14.976-56.064-11.648-91.968-11.648-68.224 0-136.576 0-204.928 0-46.208 0-92.416 0-138.688 0-25.024 0-51.328-1.856-66.304 7.616-8.384 5.12-17.6 14.72-21.312 24.256-4.224 11.008-3.2 26.368-3.2 41.024 0 21.632 0 43.136 0 64.64 0 113.984 0 228.096 0 342.144-0.512 0-0.96 0-1.472 0-14.912-12.8-26.368-28.672-46.4-36.672-17.024-6.848-36.928 0.32-47.552 7.488-7.424 5.12-13.056 11.712-19.456 17.792-15.232 14.272-30.464 28.544-45.696 42.752-7.232 7.040-14.464 14.144-21.632 21.312-8.896 7.296-16.64 15.616-24.832 23.552-9.92 9.472-20.736 16.832-26.688 30.144-2.56 5.632-7.616 15.808-5.76 25.28 4.352 22.464 18.624 34.304 33.152 46.912 8.64 7.424 16.256 16.064 24.832 23.552 47.68 45.376 95.36 90.752 143.040 136.128 8.64 8.192 17.28 16.384 25.92 24.64 12.544 11.904 23.744 26.624 47.936 27.392-0 0.448-0 0.832-0 1.28z"  horiz-adv-x="1025" />

    
    <glyph glyph-name="wenjian" unicode="&#58912;" d="M520.730337 831.690322 520.730337 533.45694 818.964742 533.45694ZM483.596602 495.960954 483.596602 831.690322 483.596602 831.690322 185.216887 831.690322 185.216887-63.013917 837.603241-63.013917 837.603241 495.960954Z"  horiz-adv-x="1024" />

    
    <glyph glyph-name="shizhong" unicode="&#58889;" d="M512 832C262.4 832 64 633.6 64 384s198.4-448 448-448 448 198.4 448 448S761.6 832 512 832zM768 128c-70.4-70.4-160-108.8-256-108.8S326.4 57.6 256 128c-70.4 70.4-108.8 160-108.8 256 0 96 38.4 185.6 108.8 256 70.4 70.4 160 108.8 256 108.8 96 0 185.6-38.4 256-108.8 70.4-70.4 108.8-160 108.8-256S838.4 198.4 768 128zM729.6 288l-192 115.2L537.6 633.6c0 12.8-6.4 19.2-19.2 19.2L499.2 652.8C486.4 652.8 480 640 480 633.6L480 384c0-6.4 6.4-19.2 12.8-19.2l204.8-128c12.8-6.4 25.6 0 32 6.4l12.8 19.2C742.4 268.8 742.4 281.6 729.6 288z"  horiz-adv-x="1024" />

    
    <glyph glyph-name="rili1" unicode="&#58896;" d="M396.137179 757.323591l225.347374 0 0-41.577954L396.137179 715.745636 396.137179 757.323591 396.137179 757.323591zM396.137179 757.323591M846.417489 757.866966 723.453946 757.866966l0-41.580001 122.964566 0c28.710902 0 52.139497-23.428595 52.139497-52.139497l0-93.440136-0.13917 0L125.563764 570.707332l0 93.440136c0 28.710902 23.426549 52.139497 52.137451 52.139497l122.958426 0 0 41.580001L177.563068 757.866966c-51.728128 0-93.711312-42.12133-93.711312-93.719498l0-634.178667c0-51.736315 42.11519-93.719498 93.711312-93.719498l668.855444 0c51.730175 0 93.712335 41.983183 93.712335 93.719498L940.130847 664.147468C940.268994 715.744613 898.147664 757.866966 846.417489 757.866966L846.417489 757.866966zM846.551542-22.309866 177.701215-22.309866c-28.710902 0-52.137451 23.428595-52.137451 52.139497L125.563764 528.997372l773.126252 0 0.13917 0L898.829186 29.829632C898.690016 1.11873 875.263467-22.309866 846.551542-22.309866L846.551542-22.309866zM846.551542-22.309866M347.654978 642.074753 347.654978 642.074753c-16.657378 0-30.331819 13.542434-30.331819 30.337959L317.323159 802.414555c0 16.663518 13.674441 30.337959 30.331819 30.337959l0 0c16.657378 0 30.337959-13.542434 30.337959-30.337959l0-130.000819C377.99396 655.617188 364.312356 642.074753 347.654978 642.074753L347.654978 642.074753zM347.654978 642.074753M676.458609 641.130242 676.458609 641.130242c-16.789385 0-30.331819 13.542434-30.331819 30.331819L646.12679 801.46902c0 16.655332 13.674441 30.336936 30.331819 30.336936l0 0c16.663518 0 30.337959-13.542434 30.337959-30.336936l0-130.007983C706.796568 654.804682 693.255157 641.130242 676.458609 641.130242L676.458609 641.130242zM676.458609 641.130242M630.145817 328.169437l-59.445904 0c-7.453762 0-13.542434 6.090718-13.542434 13.542434l0 59.445904c0 7.451716 6.088672 13.542434 13.542434 13.542434l59.445904 0c7.451716 0 13.542434-6.090718 13.542434-13.542434l0-59.445904C643.827421 334.260156 637.597533 328.169437 630.145817 328.169437L630.145817 328.169437zM630.145817 328.169437M807.007921 328.169437l-59.452044 0c-7.444553 0-13.542434 6.090718-13.542434 13.542434l0 59.445904c0 7.451716 6.097882 13.542434 13.542434 13.542434l59.452044 0c7.453762 0 13.542434-6.090718 13.542434-13.542434l0-59.445904C820.550355 334.260156 814.461683 328.169437 807.007921 328.169437L807.007921 328.169437zM807.007921 328.169437M276.558733 208.450798l-59.452044 0c-7.446599 0-13.542434 6.097882-13.542434 13.542434l0 59.452044c0 7.446599 6.095835 13.542434 13.542434 13.542434l59.452044 0c7.444553 0 13.542434-6.095835 13.542434-13.542434l0-59.452044C290.239314 214.680686 284.003286 208.450798 276.558733 208.450798L276.558733 208.450798zM276.558733 208.450798M453.420837 208.450798l-59.452044 0c-7.444553 0-13.542434 6.097882-13.542434 13.542434l0 59.452044c0 7.446599 6.096858 13.542434 13.542434 13.542434l59.452044 0c7.446599 0 13.542434-6.095835 13.542434-13.542434l0-59.452044C466.963271 214.680686 460.867436 208.450798 453.420837 208.450798L453.420837 208.450798zM453.420837 208.450798M630.145817 208.450798l-59.445904 0c-7.453762 0-13.542434 6.097882-13.542434 13.542434l0 59.452044c0 7.446599 6.088672 13.542434 13.542434 13.542434l59.445904 0c7.451716 0 13.542434-6.095835 13.542434-13.542434l0-59.452044C643.827421 214.680686 637.597533 208.450798 630.145817 208.450798L630.145817 208.450798zM630.145817 208.450798M807.007921 208.450798l-59.452044 0c-7.444553 0-13.542434 6.097882-13.542434 13.542434l0 59.452044c0 7.446599 6.097882 13.542434 13.542434 13.542434l59.452044 0c7.453762 0 13.542434-6.095835 13.542434-13.542434l0-59.452044C820.550355 214.680686 814.461683 208.450798 807.007921 208.450798L807.007921 208.450798zM807.007921 208.450798M276.558733 88.872353l-59.452044 0c-7.446599 0-13.542434 6.095835-13.542434 13.542434L203.564255 161.86683c0 7.444553 6.095835 13.542434 13.542434 13.542434l59.452044 0c7.444553 0 13.542434-6.097882 13.542434-13.542434l0-59.313897C290.239314 95.100194 284.003286 88.872353 276.558733 88.872353L276.558733 88.872353zM276.558733 88.872353M453.420837 88.872353l-59.452044 0c-7.444553 0-13.542434 6.095835-13.542434 13.542434L380.426359 161.86683c0 7.444553 6.096858 13.542434 13.542434 13.542434l59.452044 0c7.446599 0 13.542434-6.097882 13.542434-13.542434l0-59.313897C466.963271 95.100194 460.867436 88.872353 453.420837 88.872353L453.420837 88.872353zM453.420837 88.872353M630.145817 88.872353l-59.445904 0c-7.453762 0-13.542434 6.095835-13.542434 13.542434L557.157479 161.86683c0 7.444553 6.088672 13.542434 13.542434 13.542434l59.445904 0c7.451716 0 13.542434-6.097882 13.542434-13.542434l0-59.313897C643.827421 95.100194 637.597533 88.872353 630.145817 88.872353L630.145817 88.872353zM630.145817 88.872353"  horiz-adv-x="1024" />

    
    <glyph glyph-name="dengluming" unicode="&#58883;" d="M663.648-104.576l-303.328 0c-100.512 0-181.984 82.016-181.984 183.2l0 122.144c0 80.224 51.52 147.648 122.816 172.448-38.816 52.736-62.176 120.32-62.176 193.952 0 168.64 122.208 305.344 272.992 305.344s272.992-136.704 272.992-305.344c0-73.664-23.328-141.216-62.176-193.952 71.296-24.8 122.816-92.256 122.816-172.448l0-122.144C845.664-22.56 764.16-104.576 663.648-104.576zM724.32 567.2c0 134.912-95.072 244.288-212.32 244.288-117.28 0-212.32-109.376-212.32-244.288s95.072-244.288 212.32-244.288C629.28 322.944 724.32 432.288 724.32 567.2zM784.992 185.504c0 64.928-48.928 119.008-114.528 133.376-44.704-35.776-99.296-57.024-158.464-57.024s-113.76 21.28-158.464 57.024c-65.6-14.368-114.528-68.448-114.528-133.376l0-91.616c0-75.904 66.656-137.408 148.896-137.408l248.16 0c82.24 0 148.896 61.504 148.896 137.408L784.96 185.504z"  horiz-adv-x="1024" />

    
    <glyph glyph-name="lajitong" unicode="&#58897;" d="M723.458039 455.793116c0 23.790846-18.968004 43.070958-42.304502 43.070958-23.350824 0-42.291199-19.279089-42.291199-43.070958l0-358.991164c0-23.765263 18.941398-43.083238 42.291199-43.083238 23.336498 0 42.304502 19.279089 42.304502 43.083238L723.458039 455.793116zM554.291199 455.793116c0 23.790846-18.954701 43.070958-42.291199 43.070958-23.363104 0-42.291199-19.279089-42.291199-43.070958l0-358.991164c0-23.765263 18.928095-43.083238 42.291199-43.083238 23.336498 0 42.291199 19.279089 42.291199 43.083238L554.291199 455.793116zM385.125381 455.793116c0 23.790846-18.954701 43.070958-42.291199 43.070958-23.349801 0-42.291199-19.279089-42.291199-43.070958l0-358.991164c0-23.765263 18.941398-43.083238 42.291199-43.083238 23.323195 0 42.291199 19.279089 42.291199 43.083238L385.125381 455.793116zM808.04146 541.934009l0-86.140892 0-445.145359c0-23.765263-18.954701-43.057655-42.291199-43.057655L258.249739-32.409898c-23.349801 0-42.291199 19.305695-42.291199 43.057655L215.95854 455.793116l0 86.140892 0 43.070958 592.08292 0L808.04146 541.934009zM173.666318 671.159162c0 23.777543 18.928095 43.109844 42.291199 43.109844l211.458039 0 0 43.057655c0 23.804149 18.941398 43.084261 42.291199 43.084261l84.58342 0c23.323195 0 42.291199-19.279089 42.291199-43.084261l0-43.057655 211.458039 0c23.337521 0 42.291199-19.279089 42.291199-43.109844l0-43.084261L173.666318 628.074901 173.666318 671.159162z"  horiz-adv-x="1024" />

    
    <glyph glyph-name="pc" unicode="&#58913;" d="M0 896v0zM0-67.776v0zM0-7.488v0zM0 52.736v0zM0 113.024v0zM0 173.248v0zM0 233.472v0zM0 293.76v0zM0 353.984v0zM0 414.016v0zM0 474.24v0zM0 534.528v0zM0 594.752v0zM0 654.976v0zM0 715.264v0zM0 775.488v0zM0 835.776v0zM0-128v0zM0 896v0zM963.776 896v0zM903.488 896v0zM843.264 896v0zM782.976 896v0zM722.752 896v0zM662.528 896v0zM602.24 896v0zM542.016 896v0zM481.984 896v0zM421.76 896v0zM361.472 896v0zM301.248 896v0zM241.024 896v0zM180.736 896v0zM120.512 896v0zM60.224 896v0zM1024 896v0zM909.952 721.728h-798.208c-36.736 0-66.496-27.136-66.496-60.544v-484.16c0-33.472 29.76-60.544 66.496-60.544h328.64v-72.768h-81.536v-51.2h302.656v51.2h-81.472v72.768h329.856c36.672 0 68.8 27.072 68.8 60.544v484.16c0.064 33.472-32.064 60.544-68.736 60.544zM905.472 232.256h-786.88v414.4h786.944v-414.4z"  horiz-adv-x="1024" />

    
    <glyph glyph-name="yanzhengma" unicode="&#58964;" d="M119.928928 667.520285 119.928928 667.520285l0-561.941436c0-31.360242 24.992207-56.591903 55.710836-56.591903l673.216775 0c30.638811 0 55.713906 25.305339 55.713906 56.591903L904.570445 667.520285c0 31.360242-24.997324 56.587809-55.713906 56.587809L175.639764 724.108095C144.99993 724.108095 119.928928 698.806849 119.928928 667.520285L119.928928 667.520285 119.928928 667.520285zM63.881424 667.520285c0 62.322417 50.135864 112.849184 111.75834 112.849184l673.216775 0c61.72276 0 111.76141-50.469462 111.76141-112.849184l0-561.941436c0-62.326511-50.135864-112.849184-111.76141-112.849184L175.639764-7.270335c-61.723783 0-111.75834 50.465368-111.75834 112.849184L63.881424 667.520285 63.881424 667.520285 63.881424 667.520285zM63.881424 667.520285M288.066323 330.290751c30.952966 0 56.042387 25.186635 56.042387 56.257282 0 31.072693-25.090445 56.262398-56.042387 56.262398-30.953989 0-56.047504-25.189705-56.047504-56.262398C232.018819 355.477386 257.113357 330.290751 288.066323 330.290751L288.066323 330.290751zM512.247128 330.290751c30.952966 0 56.047504 25.186635 56.047504 56.257282 0 31.072693-25.093515 56.262398-56.047504 56.262398s-56.043411-25.189705-56.043411-56.262398C456.203718 355.477386 481.294163 330.290751 512.247128 330.290751L512.247128 330.290751zM736.432027 330.290751c30.952966 0 56.047504 25.186635 56.047504 56.257282 0 31.072693-25.093515 56.262398-56.047504 56.262398s-56.047504-25.189705-56.047504-56.262398C680.385547 355.477386 705.479061 330.290751 736.432027 330.290751L736.432027 330.290751zM736.432027 330.290751"  horiz-adv-x="1024" />

    
    <glyph glyph-name="caidan" unicode="&#58935;" d="M63.046407 767.919926l895.894344 0 0-127.410831-895.894344 0 0 127.410831ZM63.046407 448.819285l895.894344 0 0-127.411855-895.894344 0 0 127.411855ZM63.046407 129.717619l895.894344 0 0-127.410831-895.894344 0 0 127.410831Z"  horiz-adv-x="1024" />

    
    <glyph glyph-name="chahao" unicode="&#58927;" d="M512 896C229.227 896 0 666.772 0 384c0-282.772 229.227-512 512-512 282.773 0 512 229.227 512 512C1024 666.773 794.773 896 512 896zM512-34.907C281.022-34.907 93.09 153.01 93.09 384 93.09 614.988 281.022 802.91 512 802.91c230.979 0 418.907-187.921 418.907-418.91C930.907 153.01 742.979-34.907 512-34.907zM703.888 576.461l-0.611 0.613c-16.732 16.73-43.884 16.73-60.613 0L511.406 445.807 380.149 577.075c-16.731 16.73-43.881 16.73-60.611 0l-0.613-0.613c-16.729-16.742-16.729-43.869 0-60.61l131.256-131.258L318.926 253.338c-16.729-16.744-16.729-43.883 0-60.613l0.613-0.612c16.73-16.729 43.879-16.729 60.611 0L511.407 323.37l131.256-131.258c16.729-16.729 43.881-16.729 60.613 0l0.611 0.612c16.729 16.73 16.729 43.869 0 60.613L572.631 384.593l131.257 131.258C720.616 532.592 720.616 559.72 703.888 576.461zM561.535 384l13.728 13.727 129.662 129.659c16.546 16.545 13.978 35.909 0.432 49.455l-0.5 0.5c-13.545 13.545-32.909 16.114-49.455-0.432L525.739 447.25l-13.728-13.727-13.728 13.727L368.622 576.909c-16.546 16.546-35.91 13.978-49.456 0.432l-0.5-0.5c-13.546-13.545-16.114-32.909 0.432-49.455L448.76 397.727 462.488 384l-143.39-143.386c-16.545-16.545-15.068-37.023-1.545-50.568l0.5-0.5c13.546-13.521 34.023-15 50.569 1.545l143.39 143.387 143.39-143.387c16.546-16.545 37.023-15.066 50.569-1.545l0.5 0.5c13.522 13.545 15 34.023-1.546 50.568L561.535 384zM512.012 896C229.233 896 0 666.772 0 384c0-282.773 229.232-512 512.011-512C794.768-128 1024 101.227 1024 384 1024 666.772 794.768 896 512.012 896zM512.012-58.182C268.188-58.182 69.797 140.182 69.797 384c0 243.818 198.391 442.182 442.214 442.182 243.823 0 442.191-198.364 442.191-442.182C954.203 140.182 755.835-58.182 512.012-58.182z"  horiz-adv-x="1024" />

    
    <glyph glyph-name="zuoshuangxiangsanjiao" unicode="&#58928;" d="M777.63072 656.811008l0-511.652864-305.98144 256.232448L777.63072 656.811008zM552.35072 656.811008l0-511.652864-305.98144 256.232448L552.35072 656.811008z"  horiz-adv-x="1024" />

    
    <glyph glyph-name="twoAngleright" unicode="&#58929;" d="M246.369 111.189v511.653l305.981-256.232-305.981-255.42zM471.649 111.189v511.653l305.981-256.232-305.981-255.42z"  horiz-adv-x="1024" />

    
    <glyph glyph-name="naozhong" unicode="&#58898;" d="M512.723968 773.080064c-248.880128 0-450.56-201.719808-450.56-450.56 0-112.919552 41.660416-216.080384 110.319616-295.159808L67.084288-101.839872l31.720448-25.879552L200.943616-2.56c80.940032-77.63968 190.74048-125.44 311.780352-125.44 121.320448 0 231.360512 48.039936 312.380416 126.040064l102.080512-125.920256 31.840256 25.79968-105.480192 130.11968C921.864192 107.039744 963.283968 209.92 963.283968 322.520064 963.283968 571.360256 761.524224 773.080064 512.723968 773.080064zM512.723968-87.04c-225.859584 0-409.6 183.719936-409.6 409.560064 0 225.880064 183.740416 409.6 409.6 409.6s409.6-183.719936 409.6-409.6C922.323968 96.679936 738.583552-87.04 512.723968-87.04zM327.503872 896 205.824 896C92.703744 896 1.024 804.320256 1.024 691.2l0-123.240448 58.24 0L327.503872 837.720064 327.503872 896zM286.543872 854.59968 42.223616 608.919552 41.984 608.919552 41.984 691.2c0 90.319872 73.499648 163.84 163.84 163.84l80.719872 0L286.543872 854.59968zM820.224 896 698.464256 896l0-58.279936 268.279808-269.760512L1025.024 567.959552 1025.024 691.2C1025.024 804.320256 933.30432 896 820.224 896zM984.064 608.919552l-0.279552 0L739.424256 854.59968 739.424256 855.04 820.224 855.04c90.340352 0 163.84-73.520128 163.84-163.84L984.064 608.919552zM492.544 322.56 266.743808 322.56 266.743808 281.6 533.504 281.6 533.504 650.24 492.544 650.24Z"  horiz-adv-x="1026" />

    
    <glyph glyph-name="icon36" unicode="&#58907;" d="M698.774 405.568 348.599 664.564c-6.739 4.992-15.276 5.297-22.235 0.793-7.004-4.508-11.338-13.109-11.338-22.426l0-517.863c0-9.316 4.334-17.918 11.338-22.426 3.283-2.125 6.916-3.176 10.55-3.176 4.07 0 8.141 1.332 11.685 3.946l350.175 258.89c6.345 4.688 10.199 12.852 10.199 21.633C708.973 392.716 705.119 400.884 698.774 405.568L698.774 405.568zM698.774 405.568"  horiz-adv-x="1024" />

    
    <glyph glyph-name="zixun" unicode="&#58899;" d="M819.383274 94.539422l0-158.572552L662.655743 32.453389c-21.73093-3.546779-44.039006-5.619998-66.945715-5.619998-107.659999 0-204.099445 41.199331-270.648117 106.259092 10.958586-0.627287 21.852704-1.418302 32.992415-1.418302 15.617699 0 31.020504 0.765433 46.252417 1.990331 52.54882-36.173874 118.990045-57.908898 191.399191-57.908898 24.957415 0 49.093115 2.838651 72.355935 7.698333l54.443983-36.31509c-0.058328-0.023536-0.106424-0.053212-0.164752-0.077771l41.120536-27.219945 0 99.053993c84.095303 47.393403 139.79693 129.250736 139.79693 222.458581 0 58.948577-22.500457 113.227808-60.123332 157.294442 2.483564 17.197684 4.204765 34.607192 4.204765 52.391231 0 8.138354-0.873903 16.071024-1.418302 24.082488 69.621661-57.93755 113.25032-139.559523 113.25032-230.269477 0.004093-101.757568-54.824653-192.102203-139.792836-250.312976L819.383274 94.539422zM427.95535 194.57886c-22.906709 0-45.228087 2.073218-66.949808 5.625114l-156.722414-96.487541L204.283128 262.259308c-84.96716 58.237379-139.79386 148.582013-139.79386 250.343675 0 175.634136 162.729222 318.017984 363.466082 318.017984 200.737884 0 363.466082-142.384871 363.466082-318.017984C791.421432 336.962707 628.693234 194.57886 427.95535 194.57886L427.95535 194.57886zM427.95535 774.703423c-169.857573 0-307.547515-118.92967-307.547515-265.5981 0-93.198635 55.697533-175.039595 139.792836-222.464721l0-99.05297 41.120536 27.220968c-0.067538 0.028653-0.12075 0.053212-0.173962 0.082888l54.468542 36.314067c23.248494-4.864798 47.385217-7.699356 72.340585-7.699356 169.857573 0 307.548538 118.90204 307.548538 265.599124C735.503888 655.77273 597.812923 774.703423 427.95535 774.703423L427.95535 774.703423zM609.688391 467.170235c-23.150256 0-41.939181 18.769482-41.939181 41.934065 0 23.155373 18.788925 41.940205 41.939181 41.940205 23.156396 0 41.940205-18.783809 41.940205-41.940205C651.628596 485.939717 632.844787 467.170235 609.688391 467.170235L609.688391 467.170235zM441.933713 467.170235c-23.164582 0-41.940205 18.769482-41.940205 41.934065 0 23.155373 18.775622 41.940205 41.940205 41.940205 23.170722 0 41.940205-18.783809 41.940205-41.940205C483.873917 485.939717 465.103412 467.170235 441.933713 467.170235L441.933713 467.170235zM274.184151 467.170235c-23.171746 0-41.940205 18.769482-41.940205 41.934065 0 23.155373 18.769482 41.940205 41.940205 41.940205 23.164582 0 41.934065-18.783809 41.934065-41.940205C316.118216 485.939717 297.349757 467.170235 274.184151 467.170235L274.184151 467.170235zM274.184151 467.170235"  horiz-adv-x="1024" />

    
    <glyph glyph-name="triangle-down-copy" unicode="&#58920;" d="M208.487 538.428l303.286-309.453 303.287 309.453z"  horiz-adv-x="1024" />

    
    <glyph glyph-name="books" unicode="&#58922;" d="M233.472 485.376 106.496 485.376l0-51.2 126.976 0L233.472 485.376zM436.224 435.2l151.552 0 0 51.2L436.224 486.4 436.224 435.2zM436.224 282.624l151.552 0 0 51.2L436.224 333.824 436.224 282.624zM106.496 282.624l126.976 0 0 51.2L106.496 333.824 106.496 282.624zM5.12 764.928l0-762.88c0-41.984 33.792-75.776 75.776-75.776l177.152 0 0 51.2L106.496-22.528c-27.648 0-50.176 22.528-50.176 51.2L56.32 739.328c0 27.648 22.528 51.2 50.176 51.2l151.552 0 0 51.2L80.896 841.728C38.912 841.728 5.12 806.912 5.12 764.928zM233.472 637.952 106.496 637.952l0-51.2 126.976 0L233.472 637.952zM436.224 587.776l151.552 0 0 51.2L436.224 638.976 436.224 587.776zM790.528 435.2l126.976 0 0 51.2L790.528 486.4 790.528 435.2zM790.528 282.624l126.976 0 0 51.2L790.528 333.824 790.528 282.624zM917.504 637.952 790.528 637.952l0-51.2 126.976 0L917.504 637.952zM638.976 867.328 385.024 867.328c-41.984 0-75.776-33.792-75.776-75.776l0-813.056c0-41.984 33.792-75.776 75.776-75.776l253.952 0c41.984 0 75.776 33.792 75.776 75.776L714.752 790.528C714.752 832.512 680.96 867.328 638.976 867.328zM663.552 3.072c0-27.648-22.528-51.2-50.176-51.2L410.624-48.128c-27.648 0-50.176 22.528-50.176 51.2L360.448 764.928c0 27.648 22.528 51.2 50.176 51.2l202.752 0c27.648 0 50.176-22.528 50.176-51.2L663.552 3.072zM943.104 841.728 765.952 841.728l0-51.2 177.152 0c27.648 0 25.6-22.528 25.6-51.2l0-711.68c0-27.648 3.072-51.2-25.6-51.2L765.952-23.552l0-51.2 177.152 0c41.984 0 75.776 33.792 75.776 75.776L1018.88 764.928C1018.88 806.912 985.088 841.728 943.104 841.728z"  horiz-adv-x="1024" />

    
    <glyph glyph-name="shudao" unicode="&#58908;" d="M449.337333 832.90294l123.81391 0 0-897.394511-123.81391 0 0 897.394511Z"  horiz-adv-x="1024" />

    
    <glyph glyph-name="duihao" unicode="&#58923;" d="M924.283927 559.029362c-22.550599 53.309136-54.821583 101.18554-95.924723 142.283564-41.104163 41.104163-88.976474 73.380264-142.289704 95.92984-55.206346 23.350824-113.829512 35.189454-174.252673 35.189454s-119.051443-11.837606-174.257789-35.189454c-53.309136-22.549575-101.181447-54.825676-142.284587-95.92984-41.10314-41.098024-73.379241-88.975451-95.924723-142.283564-23.349801-55.202253-35.189454-113.834628-35.189454-174.253696 0-60.423161 11.839653-119.05042 35.189454-174.257789 22.545482-53.309136 54.821583-101.180424 95.924723-142.283564 41.10314-41.104163 88.976474-73.380264 142.284587-95.925746 55.206346-23.349801 113.834628-35.18843 174.257789-35.18843s119.046327 11.837606 174.252673 35.18843c53.31323 22.545482 101.18554 54.821583 142.289704 95.925746 41.098024 41.10314 73.374124 88.975451 95.924723 142.283564 23.349801 55.207369 35.189454 113.834628 35.189454 174.257789C959.473381 445.195757 947.633728 503.827109 924.283927 559.029362zM748.652861 504.829949 477.101165 224.561731c-5.270027-5.437849-12.345166-8.433066-19.920702-8.433066-6.970762 0-13.635555 2.599198-18.767436 7.317663L274.074146 374.494509c-11.256368 10.346649-11.998265 27.928073-1.65264 39.190581 5.238304 5.697769 12.68388 8.966209 20.428262 8.966209 6.968715 0 13.632485-2.597151 18.764366-7.313569l144.447856-132.768863 252.750491 260.864286c5.275143 5.441942 12.353352 8.438183 19.930935 8.438183 7.240915 0 14.09195-2.775206 19.293415-7.814989C759.022023 533.410891 759.298316 515.813095 748.652861 504.829949z"  horiz-adv-x="1024" />

    
    <glyph glyph-name="jiantou-copy-copy" unicode="&#58914;" d="M272.039 434.812c131.992 127.611 263.982 255.215 395.97 382.695 54.348 52.596 135.37-32.807 80.77-85.529-117.463-113.581-234.928-227.037-352.326-340.618 118.026-117.462 236.051-235.051 354.142-352.514 53.722-53.472-27.299-138.877-80.834-85.468-132.618 131.928-265.169 263.918-397.723 395.907-21.915 21.914-22.478 63.866 0 85.527z"  horiz-adv-x="1024" />

    
    <glyph glyph-name="jiantou-copy-copy-copy-copy" unicode="&#58915;" d="M751.962 333.188c-131.992-127.611-263.982-255.215-395.97-382.695-54.348-52.596-135.37 32.807-80.77 85.529 117.463 113.581 234.928 227.037 352.326 340.618-118.026 117.462-236.051 235.051-354.142 352.514-53.722 53.472 27.299 138.877 80.834 85.468 132.618-131.928 265.169-263.918 397.723-395.907 21.915-21.914 22.478-63.866 0-85.527z"  horiz-adv-x="1024" />

    
    <glyph glyph-name="chahao1" unicode="&#58930;" d="M512.044718 896C229.259269 896 0 666.779406 0 384.044718c0-282.78424 229.259269-512.044718 512.044718-512.044718 282.734688 0 511.955282 229.259269 511.955282 512.044718C1024 666.779406 794.779406 896 512.044718 896L512.044718 896 512.044718 896zM736.312497 228.73202c19.05589-19.05589 19.05589-49.949952 0-69.039683-19.05589-19.05589-49.989836-19.017215-69.007051 0.07735L512.044718 314.992949 356.770695 159.692337c-19.094565-19.017215-49.99467-19.017215-69.001008 0-19.094565 19.088522-19.094565 49.983793-0.044718 69.039683l155.26798 155.311489L287.75881 539.26798c-19.083688 19.054682-19.083688 49.955995-0.032632 69.044517 19.051056 19.016007 49.989836 19.016007 69.044517 0l155.272814-155.26798 155.261937 155.26798c19.016007 19.016007 49.949952 19.016007 69.007051 0 19.05589-19.088522 19.05589-49.989836 0-69.044517L581.05056 384.006043 736.312497 228.73202 736.312497 228.73202 736.312497 228.73202zM736.312497 228.73202"  horiz-adv-x="1024" />

    
    <glyph glyph-name="rili1" unicode="&#58900;" d="M377.897477 779.708975l265.298718 0 0-47.459125-265.298718 0 0 47.459125ZM888.317416 779.708975 748.229288 779.708975l0-47.459125 123.54866 0c18.167626 0 32.894732-14.727106 32.894732-32.894732l0-92.92987L115.42936 606.425248l0 92.92987c0 18.167626 14.727106 32.894732 32.894732 32.894732l123.54866 0 0 47.459125L131.776437 779.708975c-35.244356 0-63.814389-28.571056-63.814389-63.815412l0.004093-713.966329c0-35.243333 28.571056-63.814389 63.814389-63.814389l756.540979 0c35.244356 0 63.814389 28.571056 63.814389 63.815412l-0.004093 713.966329C952.131805 751.138942 923.560749 779.708975 888.317416 779.708975zM904.67268 558.966123l0-540.498398c0-18.167626-14.727106-32.894732-32.894732-32.894732L148.324092-14.427007c-18.167626 0-32.894732 14.727106-32.894732 32.894732L115.42936 558.966123 904.67268 558.966123zM300.659736 831.198073l47.459125 0 0-170.241292-47.459125 0 0 170.241292ZM672.97481 831.198073l47.450938 0 0-170.241292-47.450938 0 0 170.241292ZM358.384138 348.060786l0-231.021432 52.863464 0L411.247602 436.773409l-34.580198 0-2.651514-3.804835c-18.000819-25.896006-41.448959-48.758786-69.681285-67.955908l-3.886703-2.643327 0-53.742526 13.441772 8.069156C330.690097 326.784206 345.588103 337.287925 358.384138 348.060786zM618.031888 169.447424c-10.287791-6.395971-24.435678-8.069156-42.059902-4.948946-16.094309 2.842881-27.898712 18.373321-35.082666 46.159464l-2.261615 8.753781-48.312603-13.424375 1.68956-8.129534c6.270098-30.168514 18.347737-52.052967 35.884976-65.017855 17.120734-12.705979 35.542152-19.777364 54.731087-21.043255 3.358652-0.225138 6.655903-0.337707 9.897892-0.337707 14.859119 0 28.430857 2.374184 40.452211 7.072408 14.417029 5.641758 26.88866 13.338413 37.076162 22.86278 10.365566 9.723922 18.230051 22.143362 23.378552 36.920612 4.918246 14.170401 7.739636 28.296797 8.385373 42.025108 0.60685 13.658723-0.667228 26.650218-3.791531 38.619382l-0.008187 0.017397c-3.111 11.777796-8.133628 23.738773-14.946104 35.551363-7.353831 12.679372-19.028268 22.750211-34.710165 29.952586-15.037183 6.872854-30.927843 10.685876-47.24729 11.32752-11.414505 0.415482-23.487027-1.386646-36.04462-5.434017 3.813022 14.568486 7.648557 31.884681 11.465673 51.775637l113.87693 0 0 49.357449L535.645647 431.507222l-1.495122-7.028404c-24.621928-115.77116-31.589954-145.497585-33.102473-150.039235l-3.432334-10.338958 45.829943-5.391036 3.054716 4.20292c8.146931 11.214951 18.247448 18.139996 30.879746 21.164011 13.004799 3.137607 24.743707 3.180588 34.879018 0.129966 9.857981-2.95545 17.822756-8.771178 24.327202-17.758284 6.512633-9.03111 10.084143-20.392401 10.617311-33.757421 0.519864-13.849067-1.603598-26.442477-6.314102-37.440476C636.315153 184.570569 628.843637 176.128911 618.031888 169.447424z"  horiz-adv-x="1024" />

    
    <glyph glyph-name="shezhi" unicode="&#58901;" d="M513.345136 594.298634c-116.544343 0-211.360825-94.659917-211.360825-211.021088 0-116.364241 94.816482-211.024158 211.360825-211.024158 116.547413 0 211.386408 94.659917 211.386408 211.024158C724.732567 499.638717 629.892549 594.298634 513.345136 594.298634zM513.345136 241.831047c-78.119195 0-141.66958 63.438844-141.66958 141.445476 0 78.004585 63.551408 141.442406 141.66958 141.442406 78.141708 0 141.695163-63.437821 141.695163-141.442406C655.040299 305.269891 591.487867 241.831047 513.345136 241.831047zM951.385681 532.536988l-42.162262 0c-5.867638 0-11.149944 3.50994-13.368472 8.924253-2.2656 5.392824-1.01819 11.599176 3.1262 15.746636l29.816073 29.772071c27.097148 27.052123 27.097148 71.323419 0 98.375541L815.922453 798.047084c-13.547551 13.526061-31.401174 20.300348-49.256844 20.300348-17.874089 0-35.725666-6.774287-49.27424-20.300348l-29.839609-29.769001c-2.764973-2.764973-6.458085-4.240581-10.215666-4.240581-1.882883 0-3.76372 0.36532-5.553483 1.110287-5.390777 2.220574-8.927323 7.500834-8.927323 13.345959L662.855288 820.612009c0 38.246069-31.356149 73.90522-69.691245 73.90522L433.549765 894.517229c-38.335097 0-69.691245-35.660174-69.691245-73.90522l0-42.117237c0-5.846148-3.50994-11.126408-8.924253-13.345959-1.790786-0.74599-3.670599-1.110287-5.551436-1.110287-3.759627 0-7.452739 1.475608-10.239202 4.240581l-29.817096 29.769001c-13.548574 13.526061-31.401174 20.300348-49.278333 20.300348-17.8526 0-35.7052-6.774287-49.275263-20.300348L97.917612 685.355489c-27.119661-27.052123-27.119661-71.323419 0-98.375541l29.815049-29.772071c4.14746-4.14746 5.370311-10.354835 3.15076-15.746636-2.243087-5.414313-7.523347-8.924253-13.389962-8.924253L75.330174 532.536988c-38.335097 0-72.591295-31.311123-72.591295-69.578682l0-159.364591c0-38.267559 34.257222-69.578682 72.591295-69.578682l42.164309 0c5.866614 0 11.146874-3.511987 13.389962-8.903787 2.218528-5.412266 0.9967-11.621688-3.15076-15.746636l-29.815049-29.794583c-27.119661-27.052123-27.119661-71.321372 0-98.371448l112.853277-112.693642c13.571087-13.527085 31.423687-20.300348 49.275263-20.300348 17.878183 0 35.730783 6.773264 49.278333 20.300348l29.817096 29.772071c2.787486 2.759857 6.479575 4.235464 10.239202 4.235464 1.880837 0 3.76065-0.363274 5.551436-1.109264 5.415336-2.220574 8.924253-7.500834 8.924253-13.346983l0-42.095747c0-38.266535 31.356149-72.476685 69.691245-72.476685l159.614278 0c38.335097 0 69.691245 34.211173 69.691245 72.476685l0 42.095747c0 5.846148 3.536546 11.126408 8.927323 13.346983 1.789763 0.74599 3.670599 1.109264 5.553483 1.109264 3.758604 0 7.450692-1.474584 10.215666-4.235464l29.839609-29.772071c13.548574-13.527085 31.401174-20.300348 49.27424-20.300348 17.85567 0 35.709293 6.773264 49.256844 20.300348l112.873744 112.693642c27.097148 27.050076 27.097148 71.319325 0 98.371448l-29.816073 29.794583c-4.14439 4.123924-5.3918 10.334369-3.1262 15.746636 2.219551 5.392824 7.500834 8.903787 13.368472 8.903787l42.162262 0c38.334073 0 72.592318 31.311123 72.592318 69.578682L1023.975952 462.958306C1023.977999 501.225865 989.719754 532.536988 951.385681 532.536988zM954.309266 303.593715l-45.086871 0c-34.167171 0-64.687278-20.367887-77.756945-51.861158-13.071713-31.516808-5.91471-67.448158 18.238386-91.579765l29.838585-29.767977L766.665609 17.691173l-29.834492 29.79356c-15.884782 15.857153-37.024242 24.603351-59.496046 24.603351-11.126408 0-21.955034-2.15099-32.219819-6.387477-31.558763-13.074783-51.951209-43.524283-51.951209-77.645404l0-44.99375L433.549765-56.938548l0 44.99375c0 34.121122-20.390399 64.570621-51.951209 77.622892-10.261715 4.259-21.093411 6.40999-32.216749 6.40999-22.475897 0-43.615357-8.746198-59.496046-24.603351l-29.838585-29.79356L147.194922 130.384815l29.817096 29.767977c24.150026 24.131607 31.311123 60.062957 18.23634 91.579765-13.071713 31.492248-43.589774 51.861158-77.753875 51.861158L72.429101 303.593715 72.429101 462.958306l45.065382 0c34.165124 0 64.682161 20.366863 77.753875 51.861158 13.074783 31.515784 5.913687 67.470671-18.23634 91.578742l-29.817096 29.769001 112.851231 112.694665 29.838585-29.794583c15.881712-15.859199 37.020148-24.604374 59.496046-24.604374 11.100826 0 21.955034 2.15099 32.216749 6.41306 31.56081 13.049201 51.951209 43.522236 51.951209 77.619822L433.548742 824.938548l159.614278 0 0-46.443775c0-34.097586 20.392446-64.570621 51.951209-77.619822 10.264784-4.26207 21.093411-6.41306 32.219819-6.41306 22.471804 0 43.61024 8.745175 59.496046 24.604374l29.834492 29.794583 112.877837-112.694665-29.838585-29.769001c-24.15412-24.108071-31.311123-60.062957-18.238386-91.556229 13.069667-31.515784 43.590797-51.882648 77.756945-51.882648l45.086871 0L954.309266 303.593715z"  horiz-adv-x="1024" />

    
    <glyph glyph-name="yewu" unicode="&#58902;" d="M919.2 654.7 679.7 654.7C675.1 741.9 606 803.9 521.3 803.9s-153.7-62-158.4-149.2L104.8 654.7c-22.5 0-40.8-18.2-40.8-40.6l0-609.3c0-22.5 18.2-40.6 40.8-40.6l814.5 0c22.5 0 40.8 18.2 40.8 40.6L960.1 356.2l0 74.2L960.1 614.1C960 636.5 941.8 654.7 919.2 654.7L919.2 654.7zM516.9 739.1c54.9 0 89-29.3 92.2-84.4L424.9 654.7C428 709.8 462.1 739.1 516.9 739.1L516.9 739.1zM885.3 38 140 38 140 356.2l258 0 0-63-0.1 0 0-53.2 250 0 0 53.3L648 293.3l0 62.9 237.3 0L885.3 38 885.3 38zM456.2 291.2l0 65 130.2 0 0-65L456.2 291.2 456.2 291.2zM884 440 144 440 144 588l740 0L884 440 884 440z"  horiz-adv-x="1024" />

    
    <glyph glyph-name="shezhi1" unicode="&#58903;" d="M596.126 465.982l-58.95 8.573c-4.288 15.542-10.718 30.546-17.685 43.944l36.978 48.231c6.43 6.43 6.43 19.829 0 26.26l-46.088 46.087c-6.43 6.43-19.829 6.43-26.259 0l-50.375-36.977c-13.397 6.43-28.402 13.397-43.944 17.684l-6.43 61.093c0 10.718-8.573 19.828-19.828 19.828l-65.381-0c-10.718 0-19.828-8.575-19.828-19.828l-8.575-61.093c-15.541-4.287-30.546-10.718-43.944-17.684l-48.231 36.977c-6.43 6.43-19.828 6.43-26.259 0l-46.088-46.088c-6.43-6.43-6.43-19.828 0-26.259l37.513-48.231c-8.574-13.397-13.397-28.402-17.685-43.944l-59.485-6.43c-10.718 0-19.829-8.575-19.829-19.829v-65.916c0-10.718 8.574-19.828 19.829-19.828l58.949-6.43c4.288-15.541 10.718-30.546 17.685-46.088l-37.513-46.087c-6.43-6.43-6.43-19.829 0-26.259l46.087-46.088c6.43-6.43 19.828-6.43 26.26 0l46.087 34.833c13.397-8.575 28.403-15.541 46.088-19.829l6.43-58.95c0-10.718 8.573-19.829 19.828-19.829h65.916c10.718 0 19.828 8.573 19.828 19.829l6.43 58.95c15.541 4.288 30.546 10.718 46.087 19.829l46.088-37.513c6.43-6.43 19.828-6.43 26.259 0l46.088 46.088c6.43 6.43 6.43 19.829 0 26.259l-37.513 46.087c8.573 13.397 13.397 28.403 17.685 43.944l58.948 6.431c10.718 0 19.83 8.573 19.83 19.828v66.451c4.827 15.007-4.284 21.973-15.001 21.973v0zM330.854 277.346c-76.633 0-138.262 61.629-138.262 138.262 0 76.634 61.092 138.263 138.262 138.263 76.634 0 138.263-61.092 138.263-138.263-2.143-76.633-63.772-138.262-138.263-138.262v0zM931.062 726.43l-39.656-13.397c-8.575 8.573-15.542 15.541-26.26 21.971l8.575 41.801c2.143 6.43-2.143 15.541-8.575 17.685l-43.944 15.541c-6.43 2.143-15.541-2.143-17.684-8.575l-19.83-39.656c-10.718 0-21.971 0-32.69-2.143l-24.115 34.833c-4.288 6.43-10.718 8.573-17.685 6.43l-41.801-21.972c-6.43-4.288-8.573-10.718-6.43-17.684l13.397-41.8c-8.573-6.43-15.541-15.542-21.971-24.115l-43.944 8.573c-6.431 2.144-15.542-2.143-17.685-8.573l-15.542-43.944c-2.143-6.43 2.145-15.542 8.575-17.685l39.656-19.829c0-10.718 0-21.972 2.145-32.691l-34.833-24.115c-6.43-4.287-8.575-10.718-6.43-17.684l21.971-41.801c4.288-6.43 10.718-8.575 17.685-6.43l39.656 13.397c8.575-8.575 17.685-15.542 26.26-21.972l-8.575-41.801c-2.143-6.43 2.143-15.541 8.575-17.684l43.944-15.542c6.43-2.143 15.541 2.144 17.684 8.575l17.685 37.513c10.718 0 24.115 0 34.833 2.143l24.115-34.833c4.288-6.43 10.718-8.573 17.685-6.43l41.799 21.972c6.431 4.287 8.575 10.718 6.431 17.684l-13.397 39.657c8.573 8.573 15.541 17.684 21.971 26.259l41.801-8.575c6.43-2.143 15.541 2.145 17.685 8.575l15.541 43.944c2.143 6.43-2.143 15.541-8.575 17.685l-37.511 17.685c0 10.718 0 21.971-2.145 34.833l34.833 24.115c6.43 4.287 8.575 10.718 6.43 17.684l-21.971 41.8c-4.286 8.575-10.716 10.718-17.684 8.575v0zM821.739 520.644c-48.231-24.115-107.18-4.288-131.295 43.944s-4.288 107.18 43.944 131.294c48.231 24.115 107.18 4.288 131.296-43.944 24.114-48.23 4.286-107.179-43.945-131.294v0zM887.654 307.892l-37.512-21.972c-8.575 6.431-19.83 10.718-30.548 15.542v43.944c0 6.43-4.287 13.397-10.718 15.541l-46.087 4.288c-6.43 0-13.397-4.288-15.541-10.718l-10.718-41.801c-10.718-2.143-21.972-4.287-32.691-8.573l-28.403 28.403c-4.288 6.43-13.397 6.43-19.829 2.143l-36.977-28.403c-6.43-4.288-6.43-13.397-2.144-19.829l21.972-37.513c-6.43-8.573-10.718-19.828-15.541-28.403h-43.945c-6.43 0-13.397-4.287-15.541-10.718l-4.288-46.087c0-6.43 4.288-13.397 10.718-15.541l41.801-10.718c2.143-10.718 4.288-21.972 8.575-32.691l-30.548-30.546c-6.43-4.288-6.43-13.397-2.143-19.829l28.403-37.513c4.288-6.43 13.397-6.43 19.828-2.144l37.513 21.971c8.573-6.43 19.828-13.397 30.546-17.685l-0-41.798c0-6.43 4.288-13.397 10.718-15.541l46.087-4.288c6.431 0 13.397 4.288 15.542 10.718l10.718 41.8c10.718 2.144 21.971 4.288 32.69 8.574l30.547-28.403c4.288-6.43 13.397-6.43 19.83-2.144l36.977 28.403c6.43 4.287 6.43 13.397 2.143 19.829l-21.971 34.832c6.43 8.575 13.398 19.83 17.685 30.548h41.799c6.43 0 13.397 4.287 15.542 10.718l4.287 46.087c0 6.43-4.287 13.397-10.718 15.541l-41.799 10.718c-2.144 10.718-4.288 21.972-8.575 32.691l30.546 30.546c6.43 4.288 6.43 13.397 2.145 19.829l-28.402 37.512c-6.967 6.968-15.54 6.968-21.972 2.68v0zM823.882 84.421c-41.799-32.69-102.892-26.259-138.262 15.542-32.691 41.799-26.26 102.892 15.541 138.262 41.801 32.691 102.892 26.259 138.263-15.541 34.832-41.801 26.259-105.037-15.542-138.263v0z"  horiz-adv-x="1024" />

    
    <glyph glyph-name="renshu" unicode="&#58904;" d="M423.56332 687.269072c34.302247 96.246041 122.072243 164.940586 224.552266 164.940586 132.224464 0 238.328014-114.354468 238.328014-252.967432 0-86.632079-40.810474-162.867368-102.83818-207.916377 140.383284-58.909691 238.325967-202.721051 238.325967-370.787838l-66.928319 0c0 166.335353-119.162983 304.948317-270.974551 324.006372-1.633197 0-42.443671 3.465938-76.722382 0l-3.267417 0c-19.934005-3.02387-39.257096-8.075933-57.764612-14.95562 14.951527 28.858258 24.756847 61.226456 28.077475 95.686293 22.474874-10.686387 47.434336-16.623609 73.764004-16.623609 99.576903 0 179.562609 84.900645 179.562609 190.590779 0 105.692181-79.985706 190.590779-179.562609 190.590779-80.761372 0-148.637272-55.848982-171.403788-133.342937C460.432019 669.007149 442.598862 679.40087 423.56332 687.269072L423.56332 687.269072zM242.004241 287.22491 242.004241 287.22491C103.251084 230.047676 5.308401 86.237339 3.676228-80.095967l0 0L72.235696-80.095967l0 0c0 164.601872 114.269533 299.747875 262.815731 322.271868l0 0 3.263323 0c34.279734 3.466961 75.089186 0 76.721359 0 151.812591-19.059078 270.977621-157.669996 270.977621-324.003302l0 0 66.926272 0 0 0c0 168.06474-97.943706 311.874053-238.328014 370.786815 62.031798 45.046962 102.840226 121.283274 102.840226 207.915353 0 138.611941-106.104573 252.966409-238.32699 252.966409-132.222417 0-239.96121-114.354468-239.96121-254.698866C139.165038 408.509207 179.973466 332.272895 242.004241 287.22491L242.004241 287.22491zM379.124202 306.282964 379.124202 306.282964c-99.57588 0-179.561585 84.899622-179.561585 190.590779s79.985706 190.590779 179.561585 190.590779c99.576903 0 179.563632-84.898599 179.563632-190.590779S478.701105 306.282964 379.124202 306.282964L379.124202 306.282964z"  horiz-adv-x="1024" />

    
    <glyph glyph-name="wenben" unicode="&#58916;" d="M747.244792 765.999181c0-44.200688 35.96512-80.165808 80.183204-80.165808l109.12742 0 0 60.534701c0 21.8701-8.78713 42.841737-24.429389 58.305941L835.667657 880.264621c-9.28548 9.18008-21.881356 14.338566-35.013445 14.338566l-53.408397 0L747.245815 765.999181zM827.427996 615.41558c-83.037205 0-150.600997 67.547419-150.600997 150.5836L676.826999 894.603187 261.756609 894.603187c-91.076298 0-164.906817-72.992431-164.906817-163.03519l0-696.532807c0-90.040712 73.830519-163.03519 164.906817-163.03519l509.893013 0c91.074252 0 164.906817 72.994478 164.906817 163.03519L936.556439 615.41558 827.427996 615.41558zM290.902416 671.804868l281.672194 0c19.461237 0 35.208896-15.765055 35.208896-35.208896s-15.747659-35.208896-35.208896-35.208896L290.902416 601.387076c-19.461237 0-35.208896 15.765055-35.208896 35.208896S271.441179 671.804868 290.902416 671.804868zM713.411219 178.878273 290.902416 178.878273c-19.461237 0-35.208896 15.765055-35.208896 35.208896s15.747659 35.208896 35.208896 35.208896l422.508803 0c19.461237 0 35.208896-15.765055 35.208896-35.208896S732.872456 178.878273 713.411219 178.878273zM713.411219 390.132674 290.902416 390.132674c-19.461237 0-35.208896 15.765055-35.208896 35.208896 0 19.443841 15.747659 35.208896 35.208896 35.208896l422.508803 0c19.461237 0 35.208896-15.765055 35.208896-35.208896C748.620116 405.897729 732.872456 390.132674 713.411219 390.132674z"  horiz-adv-x="1024" />

    
    <glyph glyph-name="duoxuankuang1" unicode="&#58934;" d="M732.09344 554.01472c-12.544 12.45184-32.82944 12.31872-45.24544-0.256L453.56544 317.952 350.30528 424.064c-12.35456 12.70272-32.60928 12.928-45.25056 0.64-12.672-12.31872-12.95872-32.60928-0.64-45.25056l126.01856-129.50528c0.06144-0.09728 0.19456-0.09728 0.256-0.18944 0.06656-0.06656 0.09728-0.18944 0.15872-0.256 2.01728-1.98656 4.51072-3.2 6.88128-4.54656 1.24928-0.67072 2.24256-1.792 3.52256-2.304 3.87072-1.60256 8.00256-2.40128 12.09856-2.40128 4.06016 0 8.12544 0.79872 11.96544 2.33472 1.24928 0.51712 2.20672 1.54112 3.39456 2.18112 2.40128 1.34144 4.89472 2.52416 6.94272 4.54144 0.06656 0.06656 0.09728 0.19456 0.19456 0.26112 0.06656 0.09728 0.15872 0.12288 0.256 0.18944l256.22528 259.00544C744.77056 521.31328 744.64256 541.568 732.09344 554.01472zM832-32l-640 0c-52.92544 0-96 43.06944-96 96l0 640c0 52.92544 43.07456 96 96 96l640 0c52.93056 0 96-43.07456 96-96l0-640C928 11.06944 884.93056-32 832-32zM192 736c-17.63328 0-32-14.36672-32-32l0-640c0-17.664 14.36672-32 32-32l640 0c17.664 0 32 14.336 32 32l0 640c0 17.63328-14.336 32-32 32L192 736z"  horiz-adv-x="1024" />

    
    <glyph glyph-name="mima1" unicode="&#58884;" d="M810.414507 405.13332 256.559237 405.13332 256.559237 554.250522c0 129.207757 126.419248 234.32484 255.624958 234.32484S746.505965 662.158161 746.505965 532.948357c0-11.773138 9.528004-21.300119 21.304212-21.300119 11.773138 0 21.302165 9.525957 21.302165 21.300119 0 152.703891-124.233466 298.231335-276.927123 298.231335S213.95593 706.952366 213.95593 554.250522l0-149.117203c-46.994314 0-85.208661-38.211277-85.208661-85.206614l0-298.229289c0-46.992267 38.214347-85.206614 85.208661-85.206614l596.458577 0c46.994314 0 85.210707 38.214347 85.210707 85.206614L895.625214 319.926706C895.625214 366.922043 857.408821 405.13332 810.414507 405.13332zM853.018837 21.697417c0-23.483854-19.11843-42.60433-42.60433-42.60433L213.95593-20.906913c-23.485901 0-42.60433 19.120476-42.60433 42.60433L171.3516 319.926706c0 23.487947 19.11843 42.606377 42.60433 42.606377l596.458577 0c23.485901 0 42.60433-19.11843 42.60433-42.606377L853.018837 21.697417zM512.185218 277.323399c-23.531949 0-42.60433-19.076474-42.60433-42.600237 0-15.770172 8.570189-29.528524 21.302165-36.897352l0-69.613474c0-11.771091 9.537214-63.910589 21.302165-63.910589 11.762905 0 21.300119 52.139497 21.300119 63.910589L533.485337 197.82581c12.731976 7.367805 21.304212 21.126156 21.304212 36.897352C554.789549 258.246925 535.713075 277.323399 512.185218 277.323399z"  horiz-adv-x="1024" />

    
    <glyph glyph-name="touxiang1" unicode="&#58905;" d="M512 259.328c124.16 0 221.184 108.8 235.904 264.576 8.576 90.112-11.84 161.792-59.072 207.424C648.128 770.688 588.608 790.656 512 790.656c-76.608 0-136.128-19.968-176.896-59.328C287.936 685.76 267.52 614.016 276.096 523.904 290.88 368.128 387.904 259.328 512 259.328zM722.816 223.872c-10.368 2.496-21.056 3.776-32.704 3.776-12.48 0-24.256-2.432-33.28-6.848C656 220.416 572.8 177.536 512 177.536s-144 42.88-144.832 43.264c-9.024 4.352-20.864 6.848-33.344 6.848-11.648 0-22.336-1.28-32.704-3.776-70.656-16.832-248.512-86.464-248.512-198.592C52.672-87.744 289.92-128 512-128c222.08 0 459.328 40.256 459.328 153.28C971.328 137.408 793.472 207.04 722.816 223.872z"  horiz-adv-x="1024" />

    
    <glyph glyph-name="jiesuo" unicode="&#58938;" d="M767.998 896C626.623 896 511.999 781.375 511.999 640.001l0-128L0 512.001l0-639.998 767.998 0L767.998 512.001l-192 0 0 128c0 105.855 86.145 192 192 192s192-86.145 192-192l0-128 64 0 0 128C1023.997 781.375 909.373 896 767.998 896zM703.998 448.001l0-511.999L64-63.998 64 448.001 703.998 448.001zM383.999 320.001c-70.655 0-128-57.345-128-128 0-70.72 57.345-128 128-128s128 57.28 128 128C511.999 262.656 454.654 320.001 383.999 320.001zM383.999 128.002c-35.327 0-64 28.67-64 64 0 35.265 28.672 64 64 64s64-28.735 64-64C447.999 156.672 419.326 128.002 383.999 128.002z"  horiz-adv-x="1024" />

    
    <glyph glyph-name="caidan1" unicode="&#58931;" d="M511.674077-24.975579M307.012837 623.118006C307.012837 604.279962 291.741016 589.00814 272.902972 589.00814L136.461463 589.00814C117.623419 589.00814 102.351598 604.279962 102.351598 623.118006L102.351598 759.559515C102.351598 778.397558 117.623419 793.66938 136.461463 793.66938l136.440485 0C291.741016 793.66938 307.012837 778.397558 307.012837 759.559515L307.012837 623.118006zM614.004697 623.118006C614.004697 604.279962 598.732875 589.00814 579.894831 589.00814L443.453323 589.00814C424.615279 589.00814 409.343457 604.279962 409.343457 623.118006L409.343457 759.559515C409.343457 778.397558 424.615279 793.66938 443.453323 793.66938l136.440485 0C598.732875 793.66938 614.004697 778.397558 614.004697 759.559515L614.004697 623.118006zM920.996556 623.118006C920.996556 604.279962 905.724735 589.00814 886.886691 589.00814L750.445182 589.00814C731.607138 589.00814 716.335317 604.279962 716.335317 623.118006L716.335317 759.559515C716.335317 778.397558 731.607138 793.66938 750.445182 793.66938l136.440485 0C905.724735 793.66938 920.996556 778.397558 920.996556 759.559515L920.996556 623.118006zM307.012837 316.126146C307.012837 297.288103 291.741016 282.016281 272.902972 282.016281L136.461463 282.016281C117.623419 282.016281 102.351598 297.288103 102.351598 316.126146L102.351598 452.567655c0 18.839067 15.271822 34.109866 34.109866 34.109866l136.440485 0C291.741016 486.677521 307.012837 471.405699 307.012837 452.567655L307.012837 316.126146zM614.004697 316.126146C614.004697 297.288103 598.732875 282.016281 579.894831 282.016281L443.453323 282.016281C424.615279 282.016281 409.343457 297.288103 409.343457 316.126146L409.343457 452.567655c0 18.839067 15.271822 34.109866 34.109866 34.109866l136.440485 0C598.732875 486.677521 614.004697 471.405699 614.004697 452.567655L614.004697 316.126146zM920.996556 316.126146C920.996556 297.288103 905.724735 282.016281 886.886691 282.016281L750.445182 282.016281C731.607138 282.016281 716.335317 297.288103 716.335317 316.126146L716.335317 452.567655c0 18.839067 15.271822 34.109866 34.109866 34.109866l136.440485 0C905.724735 486.677521 920.996556 471.405699 920.996556 452.567655L920.996556 316.126146zM307.012837 9.134287C307.012837-9.703757 291.741016-24.975579 272.902972-24.975579L136.461463-24.975579C117.623419-24.975579 102.351598-9.703757 102.351598 9.134287L102.351598 145.575796C102.351598 164.413839 117.623419 179.685661 136.461463 179.685661l136.440485 0C291.741016 179.685661 307.012837 164.413839 307.012837 145.575796L307.012837 9.134287zM614.004697 9.134287C614.004697-9.703757 598.732875-24.975579 579.894831-24.975579L443.453323-24.975579C424.615279-24.975579 409.343457-9.703757 409.343457 9.134287L409.343457 145.575796C409.343457 164.413839 424.615279 179.685661 443.453323 179.685661l136.440485 0C598.732875 179.685661 614.004697 164.413839 614.004697 145.575796L614.004697 9.134287zM920.996556 9.134287C920.996556-9.703757 905.724735-24.975579 886.886691-24.975579L750.445182-24.975579C731.607138-24.975579 716.335317-9.703757 716.335317 9.134287L716.335317 145.575796C716.335317 164.413839 731.607138 179.685661 750.445182 179.685661l136.440485 0C905.724735 179.685661 920.996556 164.413839 920.996556 145.575796L920.996556 9.134287z"  horiz-adv-x="1024" />

    
    <glyph glyph-name="jiaoyuju" unicode="&#58906;" d="M816.714469 53.849429l0-0.937776c0-9.360729-7.957106-16.850771-17.317835-16.850771L224.604583 36.060882c-9.830225 0-17.317835 7.488826-17.317835 16.850771l0 0.937776c0 9.360729 7.957106 16.850771 17.317835 16.850771l574.792051 0C808.757363 70.698984 816.714469 63.210158 816.714469 53.849429zM228.349604 116.102655l0-0.936559c0-9.361945 7.957106-16.850771 17.787331-16.850771l532.196843 0c9.829009 0 17.787331 7.488826 17.787331 16.850771l0 0.936559c0 9.360729-7.958322 16.850771-17.787331 16.850771L245.668655 132.953426C235.83843 132.953426 228.349604 125.4646 228.349604 116.102655zM220.392498 476.049194c-1.404839 7.488826-2.340182 14.977653 11.702127 24.340814 14.04231 8.893665 274.290275 167.568723 274.290275 167.568723 3.276742 0.936559 7.020547 0.936559 10.297288 0 0 0 261.651589-160.079896 274.290275-167.568723 12.169191-7.488826 13.10575-16.382492 11.700911-24.340814-1.403623-7.488826-8.425386-13.10575-17.317835-13.10575L237.243269 462.943444C229.286163 462.942228 221.796121 468.560368 220.392498 476.049194zM472.213862 554.684911c0-21.999416 17.787331-39.78553 39.78553-39.78553s39.78553 17.787331 39.78553 39.78553-17.787331 39.78553-39.78553 39.78553S472.213862 576.684327 472.213862 554.684911zM289.199207 202.228415c-9.361945 0-16.850771-7.490043-16.850771-16.850771l0-0.936559c0-9.360729 11.232631-16.850771 20.594576-16.850771l81.912459 0c9.361945 0 16.850771 7.488826 16.850771 16.850771l0 0.936559c0 9.360729-7.490043 16.850771-16.850771 16.850771l-5.616924 0L369.238547 394.605015l5.616924 0c9.361945 0 16.850771 7.488826 16.850771 16.850771l0 0.936559c0 9.360729-7.490043 16.850771-13.57403 16.850771l-85.1892 0c-12.638687 0-20.594576-7.488826-20.594576-16.850771l0-0.936559c0-9.361945 7.490043-16.850771 16.850771-16.850771l3.745021 0L292.944228 202.228415 289.199207 202.228415zM468.938336 202.228415c-9.361945 0-16.851988-7.490043-16.851988-16.850771l0-0.936559c0-9.360729 11.233848-16.850771 20.127513-16.850771l81.912459 0c9.361945 0 16.850771 7.488826 16.850771 16.850771l0 0.936559c0 9.360729-7.488826 16.850771-16.850771 16.850771l-5.615708 0L548.510613 394.605015l5.615708 0c9.361945 0 16.850771 7.488826 16.850771 16.850771l0 0.936559c0 9.360729-7.488826 16.850771-13.57403 16.850771l-85.1892 0c-12.63747 0-20.127513-7.488826-20.127513-16.850771l0-0.936559c0-9.361945 7.490043-16.850771 16.851988-16.850771l3.743805 0L472.682141 202.228415 468.938336 202.228415zM648.677466 202.228415c-9.360729 0-16.850771-7.490043-16.850771-16.850771l0-0.936559c0-9.360729 11.233848-16.850771 20.595793-16.850771l81.913675 0c9.360729 0 16.850771 7.488826 16.850771 16.850771l0 0.936559c0 9.360729-7.488826 16.850771-16.850771 16.850771l-5.616924 0L728.719239 394.605015l5.616924 0c9.360729 0 16.850771 7.488826 16.850771 16.850771l0 0.936559c0 9.360729-7.488826 16.850771-13.57403 16.850771l-85.1892 0c-12.63747 0-20.595793-7.488826-20.595793-16.850771l0-0.936559c0-9.361945 7.490043-16.850771 16.850771-16.850771l3.743805 0L652.422487 202.228415 648.677466 202.228415z"  horiz-adv-x="1024" />

    


  </font>
</defs>
</svg>
